<svg width="1440" height="440" viewBox="0 0 1440 440" fill="none" xmlns="http://www.w3.org/2000/svg">
<g clip-path="url(#clip0_1621_9257)">
<rect width="1440" height="440" fill="white"/>
<g clip-path="url(#clip1_1621_9257)">
<path d="M581.326 214.782L521.697 196.731C505.98 191.972 489.381 200.857 484.623 216.574L484.617 216.594C479.859 232.311 488.743 248.91 504.46 253.668L564.089 271.72C579.806 276.478 596.405 267.594 601.163 251.877L601.169 251.857C605.927 236.139 597.043 219.541 581.326 214.782Z" stroke="#DDDDDD" stroke-miterlimit="10"/>
<path d="M874.533 50.9998L764.956 17.827C759.172 16.0758 754.32 12.0984 751.468 6.76973C748.616 1.44109 747.997 -4.80227 749.748 -10.5869V-10.5869C750.613 -13.4536 752.035 -16.1218 753.932 -18.4389C755.828 -20.756 758.163 -22.6765 760.802 -24.0908C763.442 -25.505 766.334 -26.3852 769.314 -26.6811C772.294 -26.9769 775.302 -26.6826 778.168 -25.815L887.745 7.35779C890.615 8.22357 893.285 9.64638 895.605 11.5449C897.924 13.4433 899.846 15.7803 901.262 18.4221C902.677 21.0639 903.558 23.9588 903.854 26.9413C904.15 29.9238 903.856 32.9354 902.987 35.804V35.804C902.117 38.6701 900.69 41.3366 898.789 43.6514C896.888 45.9662 894.55 47.8839 891.908 49.2949C889.265 50.706 886.371 51.5828 883.39 51.8753C880.409 52.1679 877.4 51.8704 874.533 50.9998V50.9998Z" stroke="#DDDDDD" stroke-miterlimit="10"/>
<path d="M1274.44 455.678L1240.31 445.348L1218.35 517.89L1131.51 491.6L1106.17 575.309" stroke="#DDDDDD" stroke-width="2" stroke-linecap="round" stroke-linejoin="round"/>
<path d="M581.326 214.782L521.697 196.731C505.98 191.972 489.381 200.857 484.623 216.574L484.617 216.594C479.859 232.311 488.743 248.91 504.46 253.668L564.089 271.72C579.806 276.478 596.405 267.594 601.163 251.877L601.169 251.857C605.927 236.139 597.043 219.541 581.326 214.782Z" stroke="#DDDDDD" stroke-miterlimit="10"/>
<path d="M874.533 50.9998L764.956 17.827C759.172 16.0758 754.32 12.0984 751.468 6.76973C748.616 1.44109 747.997 -4.80227 749.748 -10.5869V-10.5869C750.613 -13.4536 752.035 -16.1218 753.932 -18.4389C755.828 -20.756 758.163 -22.6765 760.802 -24.0908C763.442 -25.505 766.334 -26.3852 769.314 -26.6811C772.294 -26.9769 775.302 -26.6826 778.168 -25.815L887.745 7.35779C890.615 8.22357 893.285 9.64638 895.605 11.5449C897.924 13.4433 899.846 15.7803 901.262 18.4221C902.677 21.0639 903.558 23.9588 903.854 26.9413C904.15 29.9238 903.856 32.9354 902.987 35.804V35.804C902.117 38.6701 900.69 41.3366 898.789 43.6514C896.888 45.9662 894.55 47.8839 891.908 49.2949C889.265 50.706 886.371 51.5828 883.39 51.8753C880.409 52.1679 877.4 51.8704 874.533 50.9998V50.9998Z" stroke="#DDDDDD" stroke-miterlimit="10"/>
<path d="M1262.77 84.6292C1285.72 105.586 1307.91 96.1003 1325.7 93.3752C1333.2 92.2024 1340.86 93.67 1347.4 97.5269C1353.93 101.384 1358.91 107.39 1361.51 114.519L1342.8 171.955C1342.8 171.955 1323.21 157.517 1308.36 161.528C1293.51 165.538 1272.75 180.215 1244.91 143.483L1262.77 84.6292Z" fill="#EDEDED" stroke="#DDDDDD" stroke-width="2" stroke-linecap="round" stroke-linejoin="round"/>
<path d="M1293.46 355.719C1291.98 355.27 1290.74 354.252 1290 352.888C1289.27 351.523 1289.11 349.924 1289.55 348.439L1363.6 103.839C1363.82 103.104 1364.19 102.421 1364.67 101.827C1365.16 101.234 1365.76 100.742 1366.44 100.381C1367.12 100.02 1367.86 99.7964 1368.62 99.7228C1369.39 99.6491 1370.16 99.7271 1370.89 99.9523C1371.63 100.172 1372.31 100.535 1372.91 101.02C1373.5 101.505 1374 102.103 1374.36 102.78C1374.72 103.456 1374.95 104.197 1375.03 104.961C1375.1 105.725 1375.03 106.497 1374.81 107.232L1300.76 351.832C1300.3 353.313 1299.28 354.554 1297.91 355.282C1296.55 356.011 1294.95 356.168 1293.46 355.719Z" fill="#F9F9F9" stroke="#EDEDED" stroke-width="2" stroke-linecap="round" stroke-linejoin="round"/>
<path d="M1243.17 342.509L1328.08 368.215" stroke="#DDDDDD" stroke-width="2" stroke-linecap="round" stroke-linejoin="round"/>
<path d="M1274.44 455.678L1240.31 445.348L1218.35 517.89L1131.51 491.6L1106.17 575.309" stroke="#DDDDDD" stroke-width="2" stroke-linecap="round" stroke-linejoin="round"/>
<path d="M1177.12 98.0521C1177.12 98.0521 1176.44 98.8544 1175.24 100.202C1174.04 101.55 1172.92 102.723 1171.28 104.375C1170.16 105.528 1168.94 106.757 1167.59 108.036C1166.78 108.821 1165.89 109.716 1165.02 110.437L1164.15 111.205C1162.16 112.992 1160.01 114.818 1157.73 116.561C1156.13 117.787 1154.47 118.995 1152.77 120.124C1139.42 128.999 1132.73 121.557 1132.73 121.557C1129.84 122.855 1127.22 124.677 1124.99 126.93C1121.89 130.004 1119.26 133.514 1117.19 137.35C1089.07 147.166 1081.15 120.608 1093.95 102.999C1105.93 97.0431 1117.2 89.772 1127.57 81.3201C1123.13 69.1892 1138.11 64.3186 1142.08 71.7029L1156.12 69.7262C1184.15 70.713 1177.12 98.0521 1177.12 98.0521Z" fill="#FEBD9D"/>
<path d="M1134.02 71.9795C1137.27 72.9645 1139.64 75.129 1137.5 79.9414" stroke="#EF8A66" stroke-width="0.75" stroke-linecap="round" stroke-linejoin="round"/>
<path d="M1134.66 81.6675C1130.83 77.3064 1136.13 74.7029 1137.99 77.9173" stroke="#EF8A66" stroke-width="0.75" stroke-linecap="round" stroke-linejoin="round"/>
<path d="M1150.19 113.644C1147.12 111.552 1146.95 106.81 1148.92 103.35C1137.97 106.92 1142.46 116.434 1150.19 113.644Z" fill="white" stroke="#EF8A66" stroke-width="0.75" stroke-linecap="round" stroke-linejoin="round"/>
<path d="M1154.11 109.107C1157.16 110.031 1159.67 111.362 1162.14 105.817C1162.82 104.23 1163.87 102.83 1165.2 101.738C1166.54 100.645 1168.12 99.892 1169.81 99.543" stroke="#EF8A66" stroke-width="0.75" stroke-linecap="round" stroke-linejoin="round"/>
<path d="M1127.57 81.3193C1128.21 83.2068 1129.41 84.8547 1131.01 86.0432" stroke="#EF8A66" stroke-width="0.75" stroke-linecap="round" stroke-linejoin="round"/>
<path d="M1157.11 98.3297C1156.99 98.7269 1156.99 99.1509 1157.11 99.548C1157.23 99.945 1157.46 100.297 1157.78 100.56C1158.11 100.824 1158.5 100.986 1158.91 101.026C1159.32 101.067 1159.74 100.984 1160.11 100.788C1160.47 100.592 1160.77 100.292 1160.97 99.9258C1161.16 99.5597 1161.24 99.1438 1161.2 98.7308C1161.16 98.3178 1161 97.9263 1160.74 97.6056C1160.47 97.2849 1160.12 97.0495 1159.72 96.9293C1159.19 96.768 1158.62 96.825 1158.13 97.0876C1157.63 97.3502 1157.27 97.797 1157.11 98.3297Z" fill="#683F1D"/>
<path d="M1167.57 108.076C1166.77 108.862 1165.88 109.756 1165.01 110.477L1164.86 110.435C1164.33 110.273 1163.89 109.907 1163.62 109.416C1163.36 108.926 1163.3 108.351 1163.46 107.818C1163.63 107.286 1163.99 106.839 1164.48 106.576C1164.97 106.314 1165.55 106.257 1166.08 106.418C1166.46 106.526 1166.8 106.739 1167.07 107.032C1167.33 107.325 1167.51 107.687 1167.57 108.076Z" fill="#683F1D"/>
<path d="M1159.38 88.0568C1157.54 90.6771 1165.59 96.514 1167.85 93.9088C1170.11 91.3036 1161.76 84.6319 1159.38 88.0568Z" fill="#604730"/>
<path d="M1175.24 100.202C1174.26 101.285 1172.92 102.723 1171.28 104.375C1170.1 101.825 1169.26 98.6755 1170.15 97.8276C1171.57 96.4805 1173.73 98.3853 1175.24 100.202Z" fill="#604730"/>
<path d="M1132.71 121.637C1129.82 122.934 1127.19 124.756 1124.97 127.01C1115.97 114.707 1126.41 106.949 1126.41 106.949C1126.99 112.365 1129.18 117.483 1132.71 121.637Z" fill="#F4A789"/>
<path d="M1189.61 99.7491C1188.46 102.974 1184.45 105.336 1179.35 103.878C1174.63 102.449 1172.76 96.0749 1175.13 91.0702C1175.13 91.0702 1166.53 90.506 1168.36 79.635C1168.36 79.635 1160.19 82.9952 1159.32 73.261C1154.31 75.5584 1149.52 78.323 1145.03 81.518C1139.31 85.9255 1137.54 84.5342 1138.14 82.1078C1138.74 79.6813 1142.45 76.4848 1142.9 76.094C1145.99 75.2884 1148.84 73.7419 1151.19 71.5885C1158.6 65.5211 1165.26 62.4084 1168.08 69.3998C1170.89 76.3913 1177.82 72.3487 1177.75 79.759C1177.66 86.8578 1178.87 98.2087 1189.61 99.7491Z" fill="#473526"/>
<path d="M1169.83 59.6266C1168.31 65.5902 1160.97 71.0849 1160.97 71.0849" stroke="#896442" stroke-width="0.75" stroke-linecap="round" stroke-linejoin="round"/>
<path d="M1170.67 77.8578C1172.33 76.2302 1174.33 74.9864 1176.52 74.2144C1178.71 73.4423 1181.04 73.1607 1183.36 73.3895" stroke="#896442" stroke-width="0.75" stroke-linecap="round" stroke-linejoin="round"/>
<path d="M1176.67 89.607C1180.11 88.7128 1183.75 88.8874 1187.09 90.1075" stroke="#896442" stroke-width="0.75" stroke-linecap="round" stroke-linejoin="round"/>
<path d="M1148.16 69.3105C1149.09 70.1083 1149.82 71.1256 1150.28 72.2721C1150.73 73.4187 1150.89 74.6591 1150.75 75.8834" stroke="#896442" stroke-width="0.75" stroke-linecap="round" stroke-linejoin="round"/>
<path d="M1148.44 99.1481C1145.54 99.0825 1143.3 95.9917 1143.4 92.2716C1143.49 88.5515 1145.92 85.583 1148.81 85.6686C1151.7 85.7542 1153.97 88.8311 1153.86 92.5451C1153.74 96.2591 1151.27 99.2155 1148.44 99.1481Z" fill="#F4AF90"/>
<path d="M1164.15 111.204C1162.16 112.992 1160.01 114.818 1157.73 116.561C1157.66 116.147 1157.66 115.726 1157.73 115.313C1158.14 113.977 1159.01 112.83 1160.18 112.077C1161.36 111.324 1162.77 111.015 1164.15 111.204Z" fill="#F4AF90"/>
<path d="M1124.82 379.162C1113.66 405.361 1097.48 386.234 1070.52 373.993L1055.12 368.652L952.685 333.256L944.132 330.294L999.976 254.46C1060.61 294.39 1139 345.789 1124.82 379.162Z" fill="#FED81D"/>
<path d="M1055.12 368.653L952.685 333.257L962.636 311.539L987.8 279.474C987.8 279.474 1012.14 285.263 998.538 303.969C984.938 322.675 983.363 338.379 1024.11 339.948C1048.74 340.85 1054.45 356.457 1055.12 368.653Z" fill="#FCC71F"/>
<path d="M1035.92 230.461C1011.3 248.112 986.66 295.046 975.397 324.282C967.293 345.331 947.272 399.804 925.14 443.727C879.066 495.179 849.133 455.226 864.082 413.666L864.149 413.445C877.268 383.653 883.534 356.654 883.45 344.548C883.241 328.436 886.568 275.948 890.746 255.267C899.825 209.781 921.172 175.114 942.124 157.975L1035.92 230.461Z" fill="#FED81D"/>
<path d="M969.748 339.102C971.994 333.205 973.894 328.233 975.373 324.362C982.02 307.491 989.995 291.175 999.222 275.565" stroke="#F7AD2B" stroke-width="0.75" stroke-linecap="round" stroke-linejoin="round"/>
<path d="M943.049 193.159C893.657 297.65 912.472 348.335 889.155 408.19C882.326 424.565 874.166 440.353 864.757 455.395" stroke="#F7AD2B" stroke-width="0.75" stroke-linecap="round" stroke-linejoin="round"/>
<path d="M922.788 243.504C938.522 234.476 950.441 220.04 956.33 202.882" stroke="#F7AD2B" stroke-width="0.75" stroke-linecap="round" stroke-linejoin="round"/>
<path d="M1001.99 238.234C1001.99 238.234 989.78 260.188 985.725 266.195C985.725 266.195 992.528 269.504 996.44 265.778C1000.35 262.051 1011.07 243.896 1011.07 243.896" stroke="#F7AD2B" stroke-width="0.75" stroke-linecap="round" stroke-linejoin="round"/>
<path d="M1134.77 228.091L1111.33 268.572C1104.16 282.121 1099.86 293.599 1095.69 301.634C1089.9 312.861 1084.24 317.725 1071.58 313.145L1071.1 312.846L1069.4 311.785L1068.28 311.052L1066.84 310.023C1066.22 309.55 1065.61 309.082 1065.08 308.612C1064.05 307.791 1063.07 306.916 1062.14 305.992L1061.14 304.964C1059.66 303.424 1058.32 301.75 1057.15 299.964C1056.91 299.633 1056.69 299.288 1056.5 298.933C1054.79 296.197 1053.51 293.215 1052.71 290.09C1052.48 289.24 1052.29 288.379 1052.15 287.51C1051.75 285.294 1051.6 283.041 1051.68 280.792C1051.69 280.4 1051.72 280.034 1051.74 279.668C1051.76 279.302 1051.8 278.81 1051.86 278.41C1051.91 278.011 1051.94 277.691 1051.99 277.331C1052.24 275.487 1052.71 273.679 1053.38 271.942C1056.28 264.798 1088.34 191.716 1088.34 191.716L1094.17 184.491L1101.96 174.815L1134.77 228.091Z" fill="#8F8AD9"/>
<path d="M1095.69 301.635C1089.9 312.862 1084.24 317.726 1071.57 313.145L1071.06 312.835L1069.36 311.773L1068.24 311.041L1066.8 310.012C1066.18 309.538 1065.57 309.07 1065.04 308.601C1064.01 307.779 1063.03 306.905 1062.1 305.981L1061.1 304.953C1059.62 303.413 1058.28 301.739 1057.11 299.952C1056.87 299.621 1056.65 299.277 1056.46 298.922C1054.75 296.186 1053.47 293.203 1052.67 290.079C1052.44 289.229 1052.25 288.368 1052.11 287.499C1051.71 285.282 1051.56 283.03 1051.64 280.78C1051.65 280.388 1051.68 280.023 1051.7 279.657C1051.72 279.291 1051.76 278.799 1051.82 278.399C1051.87 277.999 1051.9 277.68 1051.95 277.32C1052.2 275.476 1052.67 273.667 1053.34 271.931C1056.24 264.787 1088.3 191.705 1088.3 191.705L1094.13 184.48C1097.16 200.46 1098.93 225.397 1084.38 237.591C1061.99 256.376 1052.74 295.055 1084.58 299.302C1088.34 299.792 1092.05 300.572 1095.69 301.635Z" fill="#807CBF"/>
<path d="M1115.48 184.563C1112.17 185.841 1108.81 187.279 1105.4 188.879C1072.73 204.398 1038.26 234.325 1030.47 236.354C1019.3 239.154 998.113 229.188 978.48 217.346C963.68 208.523 949.564 198.599 936.252 187.659C925.202 177.736 923.134 173.054 926.73 168.925C930.326 164.795 952.16 138.804 952.16 138.804L949.949 134.736L925.473 89.7917C950.857 80.4631 983.182 71.2403 1010.96 69.081C1029.79 67.6349 1046.49 69.4475 1057.55 76.6083L1115.48 184.563Z" fill="#8F8AD9"/>
<path d="M1115.48 184.563C1112.17 185.841 1108.81 187.28 1105.4 188.879C1078.32 181.161 1047.05 191.735 1030.31 165.137C1009.58 132.223 1040.5 121.851 1030.29 92.7801C1026.54 83.0276 1019.8 74.7106 1011.04 69.019C1029.87 67.5729 1046.58 69.3855 1057.63 76.5463L1115.48 184.563Z" fill="#807CBF"/>
<path d="M978.512 217.313C963.712 208.489 949.596 198.565 936.284 187.625C925.234 177.703 923.166 173.02 926.762 168.891C930.358 164.762 952.192 138.77 952.192 138.77L949.981 134.703C963.221 127.179 981.578 116.731 982.608 116.078C984.271 115.003 1010.69 133.699 1010.69 133.699C1010.69 133.699 999.75 166.278 971.909 161.27C944.068 156.262 942.387 179.124 965.345 189.254C980.115 195.72 980.292 208.753 978.512 217.313Z" fill="#807CBF"/>
<path d="M927.845 88.9093C877.763 100.737 888.327 196.127 1007.75 140.219C1032.02 95.759 980.481 73.6455 927.845 88.9093Z" fill="#807CBF"/>
<path d="M1115.48 184.563C1105.81 188.402 1096.49 193.069 1087.62 198.514" stroke="#83ADDF" stroke-width="0.75" stroke-linecap="round" stroke-linejoin="round"/>
<path d="M927.536 438.926C926.731 440.568 925.933 442.19 925.122 443.786C916.516 460.913 907.618 476.329 898.957 487.629C867.984 528.021 817.373 590.552 817.373 590.552L763.434 569.203C770.716 559.634 804.668 519.903 848.79 443.611C854.423 433.878 859.505 423.837 864.012 413.535C864.343 412.802 864.661 412.043 864.972 411.304C876.663 387.679 936.596 379.667 927.536 438.926Z" fill="#FED81D"/>
<path d="M894.054 393.821C892.619 398.561 891.06 403.35 889.176 408.195C865.828 468.084 781.033 573.5 779.934 575.754" stroke="#F7AD2B" stroke-width="0.75" stroke-linecap="round" stroke-linejoin="round"/>
<path d="M1120.58 395.463C1100.06 440.597 1061.73 523.837 1061.73 523.837L1011.74 508.704L1070.52 373.993C1078.1 349.738 1102.45 328.848 1115.89 345.283C1134.37 368.023 1124.59 386.656 1120.58 395.463Z" fill="#FED81D"/>
<path d="M1177.29 348.282C1177.29 348.282 1156.99 342.925 1133.43 335.793C1114.01 329.914 1092.4 322.847 1078.35 316.619C1077.27 316.138 1076.23 315.649 1075.23 315.126C1074.75 314.98 1074.31 314.673 1073.88 314.433C1073.45 314.193 1073.12 314.049 1072.75 313.827C1072.09 313.474 1071.46 313.086 1070.89 312.737L1069.06 311.547L1068.64 311.266L1067.11 310.167L1066.83 309.976L1065.06 308.604C1064.99 308.565 1064.93 308.51 1064.89 308.443C1046.5 287.048 1050.64 270.915 1066.02 264.938C1076.86 260.634 1093.28 261.352 1111.39 268.695L1185.57 308.408L1177.29 348.282Z" fill="#8F8AD9"/>
<path d="M1133.43 335.793C1114.01 329.914 1092.4 322.847 1078.35 316.619C1077.27 316.138 1076.23 315.649 1075.23 315.126C1074.75 314.98 1074.31 314.674 1073.88 314.433C1073.45 314.193 1073.12 314.05 1072.75 313.828C1072.09 313.474 1071.46 313.087 1070.89 312.738L1069.06 311.547L1068.64 311.267L1067.11 310.168L1066.83 309.976L1065.06 308.605C1064.99 308.565 1064.93 308.51 1064.89 308.444C1046.5 287.048 1050.64 270.915 1066.02 264.938C1060.96 280.944 1064.91 296.766 1084.58 299.386C1111.54 302.858 1130.65 319.779 1133.43 335.793Z" fill="#807CBF"/>
<path d="M1111.34 268.637C1106.29 266.133 1101.11 263.886 1095.83 261.905" stroke="#807CBF" stroke-width="0.75" stroke-linecap="round" stroke-linejoin="round"/>
<path d="M1274.44 455.679L1254.1 439.635L1223.36 415.331C1223.36 415.331 1099.44 186.615 1040.16 76.8261C1023.85 46.6106 1012.42 25.4137 1009.82 20.4608C1001.19 3.94586 1040.9 -20.5578 1052.48 -1.83461C1053.38 -0.359122 1064.97 20.5146 1082.37 51.981C1142.17 159.976 1270.71 393.051 1270.71 393.051L1272.92 429.766L1274.44 455.679Z" fill="#F9F9F9" stroke="#DDDDDD" stroke-width="2" stroke-linecap="round" stroke-linejoin="round"/>
<path d="M1085.92 92.7607L1246.76 381.681" stroke="#EDEDED" stroke-linecap="round" stroke-linejoin="round"/>
<path d="M1071.71 104.706L1231.13 391.091" stroke="#EDEDED" stroke-linecap="round" stroke-linejoin="round"/>
<path d="M1272.86 429.747C1265.65 430.775 1259.03 434.269 1254.1 439.635L1223.36 415.331C1223.36 415.331 1227.84 403.994 1240.19 409.685C1239.7 401.315 1247.85 394.463 1255.51 403.491C1255.51 403.491 1257.22 390.612 1270.65 393.033L1272.86 429.747Z" fill="#F9F9F9" stroke="#EDEDED" stroke-width="2" stroke-linecap="round" stroke-linejoin="round"/>
<path d="M1274.44 455.679L1254.1 439.635C1259.02 434.269 1265.65 430.775 1272.86 429.748L1274.44 455.679Z" fill="#DDDDDD" stroke="#DDDDDD" stroke-width="2" stroke-linecap="round" stroke-linejoin="round"/>
<path d="M1082.37 51.981C1068.31 60.2447 1052.88 69.3631 1040.16 76.8261C1023.85 46.6106 1012.42 25.4137 1009.82 20.4608C1001.19 3.94587 1040.9 -20.5578 1052.48 -1.83462C1053.38 -0.359124 1064.97 20.5146 1082.37 51.981Z" stroke="#EDEDED" stroke-width="2" stroke-linecap="round" stroke-linejoin="round"/>
<path d="M1074.17 37.1796L1031.52 60.8357" stroke="#EDEDED" stroke-width="2" stroke-linecap="round" stroke-linejoin="round"/>
<path d="M1166.97 317.424C1188.95 308.03 1192.87 309.415 1193.91 311.836C1194.96 314.256 1185.13 320.49 1182.07 321.996C1182.07 321.996 1200.28 315.363 1203.77 319.335C1207.26 323.307 1199.86 327.383 1199.86 327.383C1199.86 327.383 1208.18 329.747 1200.16 337.033C1200.16 337.033 1204.46 338.334 1200.61 342.013C1196.75 345.691 1178.13 351.606 1173.32 347.212C1168.51 342.819 1156.33 321.988 1166.97 317.424Z" fill="#FEBD9D"/>
<path d="M1176.43 313.624C1190.16 308.509 1192.92 309.847 1193.91 311.837C1194.91 313.827 1185.13 320.492 1182.07 321.997C1182.07 321.997 1200.28 315.364 1203.77 319.336C1207.26 323.309 1199.86 327.384 1199.86 327.384C1199.86 327.384 1208.18 329.749 1200.16 337.035C1200.16 337.035 1204.46 338.336 1200.61 342.014" stroke="#EF8A66" stroke-width="0.75" stroke-linecap="round" stroke-linejoin="round"/>
<path d="M1199.88 327.388L1181.15 332.768" stroke="#EF8A66" stroke-width="0.75" stroke-linecap="round" stroke-linejoin="round"/>
<path d="M1183 341.658L1200.19 337.038" stroke="#EF8A66" stroke-width="0.75" stroke-linecap="round" stroke-linejoin="round"/>
<path d="M1182.09 322.001L1176.43 324.342" stroke="#EF8A66" stroke-width="0.75" stroke-linecap="round" stroke-linejoin="round"/>
<path d="M1036.19 141.288C1040.55 133.715 1042.91 125.15 1043.02 116.41L1022.77 119.489C1022.77 119.489 1023.87 139.114 1036.19 141.288Z" fill="#807CBF"/>
<path d="M1031.89 88.5069C1037.01 89.5121 1042.19 90.1863 1047.39 90.5256C1048.64 90.2453 1058.12 86.4503 1062.14 85.2564C1066.16 84.0626 1082.47 79.3742 1083.51 80.5867C1084.54 81.7993 1083.79 85.9358 1080.46 88.1262C1080.46 88.1262 1097.25 86.3052 1103.91 87.4876C1109.34 88.4519 1106.82 93.0824 1102.62 94.2879C1109 93.4999 1114.93 98.0149 1105.68 101.133C1111.09 101.806 1112.56 106.571 1102.74 109.957C1107.94 108.857 1109.97 113.109 1104.61 116.026C1095.89 120.796 1080.58 121.905 1075.74 122.238C1070.91 122.572 1041.56 120.354 1029.07 123.151C1029.07 123.151 1024.89 103.883 1031.89 88.5069Z" fill="#FEBD9D"/>
<path d="M1062.16 85.2625C1066.22 84.0808 1082.49 79.3803 1083.53 80.5928C1084.56 81.8054 1083.81 85.9419 1080.48 88.1323C1080.48 88.1323 1097.27 86.3113 1103.93 87.4937C1109.36 88.458 1106.84 93.0885 1102.64 94.294C1109.02 93.506 1114.95 98.0211 1105.7 101.139C1111.11 101.812 1112.58 106.577 1102.76 109.963C1107.96 108.863 1109.99 113.115 1104.63 116.032" stroke="#EF8A66" stroke-width="0.75" stroke-linecap="round" stroke-linejoin="round"/>
<path d="M1080.48 88.1324L1071.64 89.5795" stroke="#EF8A66" stroke-width="0.75" stroke-linecap="round" stroke-linejoin="round"/>
<path d="M1102.64 94.2941L1084.68 96.8378" stroke="#EF8A66" stroke-width="0.75" stroke-linecap="round" stroke-linejoin="round"/>
<path d="M1105.7 101.139L1085.91 104.862" stroke="#EF8A66" stroke-width="0.75" stroke-linecap="round" stroke-linejoin="round"/>
<path d="M1102.76 109.964L1087.06 113.52" stroke="#EF8A66" stroke-width="0.75" stroke-linecap="round" stroke-linejoin="round"/>
<path d="M1041.44 85.4141C1013.1 79.8821 961.001 73.0987 915.659 88.7507C898.109 94.7947 885.064 138.684 925.468 146.948C965.873 155.211 1036.25 141.306 1036.25 141.306C1036.25 141.306 1021.7 133.154 1041.44 85.4141Z" fill="#8F8AD9"/>
<path d="M951.249 149.49C990.219 150.326 1036.19 141.288 1036.19 141.288C1036.19 141.288 1021.7 133.154 1041.38 85.3955C1019.73 81.0639 997.702 78.9559 975.627 79.1045" stroke="#807CBF" stroke-width="0.75" stroke-linecap="round" stroke-linejoin="round"/>
<path d="M646.287 439.659C646.287 439.659 550.476 550.685 506.173 595.131C449.052 614.058 452.058 577.696 467.866 552.489C473.175 546.686 491.916 519.254 512.284 488.039C529.551 461.563 547.965 432.388 560.334 411.445L624.333 432.442L646.287 439.659Z" fill="#5FB0F9"/>
<path d="M623.603 441.081C605.646 479.976 563.153 441.46 551.239 463.505C545.292 474.53 532.637 483.525 512.259 488.121C529.527 461.646 547.94 432.47 560.309 411.528L624.308 432.525C625.191 435.36 624.938 438.428 623.603 441.081Z" fill="#469EEE"/>
<path d="M575.419 449.03C569.447 449.853 571.787 453.784 571.948 458.612C572.108 463.44 564.658 460.023 563.126 466.027C561.593 472.03 565.468 469.586 559.636 477.555C553.995 485.253 493.406 561.405 475.89 576.754" stroke="#C3DCF8" stroke-width="0.75" stroke-linecap="round" stroke-linejoin="round"/>
<path d="M715.954 461.558C715.954 461.558 641.283 454.739 592.174 444.739C562.16 438.656 545.458 423.142 540.258 405.848C538.624 400.325 538.095 394.536 538.7 388.809C539.306 383.082 541.033 377.531 543.784 372.472C576.035 351.541 606.248 351.611 629.558 357.681C646.075 362.004 661.491 369.772 674.794 380.474C734.165 393.077 765.758 405.316 780.897 418.098C799.999 462.907 760.328 465.257 715.954 461.558Z" fill="#5FB0F9"/>
<path d="M583.798 361.171C576.633 380.926 582.717 390.376 626.126 402.838C673.891 416.553 741.541 432.297 744.907 433.996C751.775 437.456 734.198 444.676 739.124 446.364C745.613 448.613 752.41 451.724 747.433 455.128C742.456 458.532 738.007 459.181 739.833 462.781" stroke="#C3DCF8" stroke-width="0.75" stroke-linecap="round" stroke-linejoin="round"/>
<path d="M551.5 424.624C560.309 433.692 573.728 441 592.168 444.762C611.849 448.769 635.611 452.258 657.036 454.995" stroke="#83ADDF" stroke-width="0.75" stroke-linecap="round" stroke-linejoin="round"/>
<path d="M758.423 378.848C755.359 383.972 749.928 388.006 741.026 389.893C740.037 389.901 739.034 389.882 738.037 389.843C737.04 389.805 736.214 389.708 735.302 389.607L733.629 389.342L732.487 389.128L731.945 388.964C731.021 388.684 730.067 388.505 729.143 388.225C714.221 383.708 701.002 369.292 696.787 339.689C696.787 339.689 684.83 351.811 679.938 360.438C679.257 361.574 678.695 362.778 678.259 364.029C676.537 369.396 675.404 374.934 674.881 380.546C674.881 380.546 645.04 371.863 623.454 371.686C601.868 371.509 576.37 375.564 543.872 372.544C543.872 372.544 549.634 358.941 557.017 353.24C555.284 351.938 554.039 350.093 553.48 348C552.921 345.907 553.081 343.686 553.934 341.695C556.356 336.158 562.838 335.314 573.443 326.356C576.883 323.425 580.113 320.257 583.11 316.873C601.953 295.764 601.26 288.714 600.491 285.894L582.363 296.455C549.818 315.389 484.431 353.365 480.078 355.577C474.232 358.521 466.645 358.088 464.598 355.582C463.347 354.064 450.334 359.245 440.258 363.561C433.678 366.393 428.33 368.851 428.33 368.851L403.837 341.704C403.837 341.704 414.388 337.269 425.348 332.497C436.931 327.475 448.97 322.109 449.575 321.196C450.826 319.382 450.38 313.831 456.04 310.634C461.092 307.778 558.979 247.829 593.049 226.397C597.465 223.612 600.825 221.494 602.748 220.212C619.552 209.097 629.158 204.091 648.204 205.055L734.139 233.11C734.139 233.11 760.403 236.084 760.927 253.256C760.977 255.77 760.811 259.14 760.49 263.099C758.546 286.321 750.825 329.279 750.825 329.279C750.825 329.279 769.165 360.746 758.423 378.848Z" fill="#FF9B35"/>
<path d="M440.113 363.605C433.534 366.437 428.185 368.895 428.185 368.895L403.692 341.749C403.692 341.749 414.243 337.313 425.203 332.541C432.378 341.685 437.467 352.288 440.113 363.605Z" fill="#B25E47"/>
<path d="M629.599 268.683C626.492 278.946 616.733 292.062 608.881 295.693C599.311 300.074 603.352 327.716 588.61 330.861C585.899 331.604 583.034 331.566 580.345 330.751C577.655 329.937 575.25 328.38 573.406 326.259C576.847 323.328 580.077 320.159 583.074 316.776C601.917 295.667 601.223 288.617 600.455 285.797C611.764 279.508 622.523 273.009 629.599 268.683Z" fill="#FF8100"/>
<path d="M758.424 378.848C755.36 383.972 749.929 388.006 741.026 389.893C740.038 389.901 739.035 389.882 738.038 389.844C737.041 389.805 736.215 389.708 735.303 389.608L733.629 389.342L732.488 389.128L731.946 388.964C731.022 388.684 730.068 388.505 729.144 388.225C714.222 383.708 701.003 369.292 696.788 339.69C718.96 314.611 723.952 300.293 725.022 285.533C728.017 287.272 730.487 289.787 732.172 292.813C733.857 295.839 734.694 299.264 734.594 302.726C734.504 321.926 702.432 335.457 712.063 352.601C720.641 367.717 747.235 356.277 750.848 371.863C751.154 373.704 752.066 375.39 753.438 376.655C754.81 377.92 756.564 378.692 758.424 378.848Z" fill="#FF8100"/>
<path d="M760.327 262.984C752.273 259.822 741.241 258.39 732.097 267.592C715.432 284.472 672.362 299.935 657.076 261.565C645.112 231.634 628.234 224.595 592.971 226.219C597.387 223.435 600.747 221.317 602.67 220.035C619.474 208.92 629.08 203.914 648.126 204.878L734.061 232.932C734.061 232.932 760.325 235.907 760.849 253.079C760.814 255.655 760.673 258.945 760.327 262.984Z" fill="#FF8100"/>
<path d="M430.319 339.616L453.118 329.921" stroke="#F7AD2B" stroke-width="0.75" stroke-linecap="round" stroke-linejoin="round"/>
<path d="M434.955 348.342L457.065 338.679" stroke="#F7AD2B" stroke-width="0.75" stroke-linecap="round" stroke-linejoin="round"/>
<path d="M438.211 356.559L457.492 349.505" stroke="#F7AD2B" stroke-width="0.75" stroke-linecap="round" stroke-linejoin="round"/>
<path d="M554.167 373.229L564.226 356.586" stroke="#F7AD2B" stroke-width="0.75" stroke-linecap="round" stroke-linejoin="round"/>
<path d="M563.144 373.555L572.966 356.248" stroke="#F7AD2B" stroke-width="0.75" stroke-linecap="round" stroke-linejoin="round"/>
<path d="M571.795 373.587L580.256 358.455" stroke="#F7AD2B" stroke-width="0.75" stroke-linecap="round" stroke-linejoin="round"/>
<path d="M582.171 373.351L589.424 359.893" stroke="#F7AD2B" stroke-width="0.75" stroke-linecap="round" stroke-linejoin="round"/>
<path d="M592.394 372.895L598.192 360.553" stroke="#F7AD2B" stroke-width="0.75" stroke-linecap="round" stroke-linejoin="round"/>
<path d="M601.739 372.37L605.111 363.985" stroke="#F7AD2B" stroke-width="0.75" stroke-linecap="round" stroke-linejoin="round"/>
<path d="M637.878 263.427C637.878 263.427 634.727 265.433 629.624 268.602C622.518 273.028 611.789 279.426 600.468 285.755" stroke="#F7AD2B" stroke-width="0.75" stroke-linecap="round" stroke-linejoin="round"/>
<path d="M696.754 339.658C718.926 314.58 723.918 300.261 724.988 285.501C725.484 279.228 725.229 272.902 725.325 265.63" stroke="#F7AD2B" stroke-width="0.75" stroke-linecap="round" stroke-linejoin="round"/>
<path d="M637.132 217.949L653.126 213.057" stroke="#F7AD2B" stroke-width="0.75" stroke-linecap="round" stroke-linejoin="round"/>
<path d="M649.236 230.032L659.987 220.374" stroke="#F7AD2B" stroke-width="0.75" stroke-linecap="round" stroke-linejoin="round"/>
<path d="M660.829 236.787L667.729 226.379" stroke="#F7AD2B" stroke-width="0.75" stroke-linecap="round" stroke-linejoin="round"/>
<path d="M668.805 240.495L674.565 230.378" stroke="#F7AD2B" stroke-width="0.75" stroke-linecap="round" stroke-linejoin="round"/>
<path d="M676.464 244.743L681.446 233.644" stroke="#F7AD2B" stroke-width="0.75" stroke-linecap="round" stroke-linejoin="round"/>
<path d="M690.241 248.914L693.494 238.169" stroke="#F7AD2B" stroke-width="0.75" stroke-linecap="round" stroke-linejoin="round"/>
<path d="M703.958 241.337L702.292 252.562" stroke="#F7AD2B" stroke-width="0.75" stroke-linecap="round" stroke-linejoin="round"/>
<path d="M711.79 242.261L710.827 255.146" stroke="#F7AD2B" stroke-width="0.75" stroke-linecap="round" stroke-linejoin="round"/>
<path d="M718.973 242.726L719.721 253.651" stroke="#F7AD2B" stroke-width="0.75" stroke-linecap="round" stroke-linejoin="round"/>
<path d="M725.189 241.67L726.9 253.545" stroke="#F7AD2B" stroke-width="0.75" stroke-linecap="round" stroke-linejoin="round"/>
<path d="M731.235 243.5L735.894 250.128" stroke="#F7AD2B" stroke-width="0.75" stroke-linecap="round" stroke-linejoin="round"/>
<path d="M735.96 238.9L742.334 244.93" stroke="#F7AD2B" stroke-width="0.75" stroke-linecap="round" stroke-linejoin="round"/>
<path d="M720.528 217.961C719.249 216.828 717.835 215.633 716.276 214.481C712.52 211.619 708.234 209.532 703.665 208.339C688.106 203.826 648.072 205.058 648.072 205.058C648.527 206.38 654.834 219.8 672.985 229.658C691.136 239.516 711.581 243.534 721.097 242.732C723.906 242.41 726.58 241.35 728.847 239.661C731.114 237.971 732.895 235.712 734.007 233.113C734.007 233.113 731.314 227.452 720.528 217.961Z" fill="#B25E47"/>
<path d="M787.859 459.915C774.261 489.913 710.444 597.733 710.444 597.733L663.608 583.554L715.813 461.805C715.864 461.727 715.892 461.637 715.892 461.544C716.124 459.838 723.736 404.131 771.471 411.5C774.781 413.437 777.926 415.643 780.875 418.096C796.447 431.185 794.7 444.776 787.859 459.915Z" fill="#5FB0F9"/>
<path d="M728.292 429.494C737.765 431.879 743.957 433.512 744.907 433.997C751.774 437.457 734.197 444.677 739.123 446.366C745.612 448.615 752.409 451.725 747.432 455.13C741.944 458.774 737.708 459.223 740.056 463.201C744.513 470.711 732.366 472.887 729.679 479.156C726.992 485.424 685.628 579.476 685.628 579.476" stroke="#C3DCF8" stroke-width="0.75" stroke-linecap="round" stroke-linejoin="round"/>
<path d="M832.457 277.039C827.053 284.172 821.713 290.295 821.713 290.295L821.009 291.463L807.572 314.121C807.572 314.121 811.929 316.821 810.55 320.942C809.171 325.063 790.078 356.555 775.792 373.255C775.169 374.009 774.472 374.719 773.768 375.449C773.065 376.179 772.729 376.494 772.185 376.987C771.054 378.018 769.88 379 768.662 379.932C768.09 380.373 767.524 380.794 766.945 381.188C766.365 381.583 765.674 382.053 765.008 382.444C764.342 382.834 763.742 383.222 763.102 383.598C761.755 384.353 760.485 384.999 758.944 385.672L756.811 386.561C753.281 387.96 749.594 388.928 745.832 389.442L745.691 389.4L743.428 389.635C742.666 389.689 741.904 389.744 741.194 389.77C728.392 382.014 726.588 371.536 729.282 361.477C733.762 344.724 750.821 329.148 750.821 329.148C750.822 329.112 750.833 329.078 750.851 329.047C752.086 327.36 772.196 300.255 775.186 298.419C778.175 296.583 782.095 299.568 782.095 299.568L797.428 277.089L800.783 272.164C800.783 272.164 800.556 270.67 800.29 268.506C799.648 264.039 799.547 259.511 799.988 255.019C800.991 250.039 806.388 248.362 810.174 248.894C810.174 248.894 813.032 240.683 816.825 238.148C817.462 237.599 818.241 237.242 819.072 237.117C819.903 236.993 820.753 237.106 821.522 237.445C822.291 237.783 822.949 238.333 823.419 239.029C823.889 239.726 824.152 240.542 824.177 241.382C825.916 238.752 832.364 240.265 830.798 246.018C831.341 245.099 832.214 244.423 833.238 244.124C834.262 243.826 835.361 243.929 836.312 244.413C837.263 244.896 837.994 245.723 838.357 246.726C838.72 247.73 838.687 248.833 838.266 249.813C838.266 249.813 844.267 246.719 844.099 255.964C843.854 260.757 838.104 269.54 832.457 277.039Z" fill="#FF9B35"/>
<path d="M802.047 282.763C802.047 282.763 789.208 302.072 789.323 301.69" stroke="#F7AD2B" stroke-width="0.75" stroke-linecap="round" stroke-linejoin="round"/>
<path d="M806.439 286.284L796.419 303.377" stroke="#F7AD2B" stroke-width="0.75" stroke-linecap="round" stroke-linejoin="round"/>
<path d="M813.577 289.653L803.85 307.515" stroke="#F7AD2B" stroke-width="0.75" stroke-linecap="round" stroke-linejoin="round"/>
<path d="M750.602 329.146C743.077 339.518 737.778 347.319 737.372 350.397" stroke="#F7AD2B" stroke-width="0.75" stroke-linecap="round" stroke-linejoin="round"/>
<path d="M773.849 375.474C773.339 375.999 772.809 376.519 772.265 377.012C771.134 378.043 769.96 379.025 768.742 379.957C768.17 380.398 767.604 380.819 767.025 381.213C766.445 381.608 765.754 382.078 765.088 382.469C764.422 382.859 763.822 383.247 763.182 383.624C761.835 384.378 760.565 385.024 759.024 385.698L756.891 386.587C753.365 387.997 749.677 388.965 745.912 389.467L745.771 389.425L743.508 389.66C742.746 389.715 741.984 389.769 741.274 389.795C728.473 382.039 726.668 371.561 729.362 361.502C738.978 362.835 748.94 362.737 751.051 371.839C753.248 382.326 765.778 378.885 773.849 375.474Z" fill="#FF8100"/>
<path d="M821.713 290.295L821.009 291.463C816.731 290.872 812.583 289.564 808.74 287.595C804.111 285.118 800.18 281.515 797.31 277.119L800.665 272.193C800.665 272.193 798.826 260.016 799.829 255.036C800.833 250.056 806.229 248.38 810.015 248.912C810.015 248.912 812.873 240.7 816.666 238.165C817.303 237.616 818.082 237.259 818.913 237.134C819.744 237.01 820.594 237.124 821.363 237.462C822.133 237.8 822.79 238.35 823.26 239.047C823.73 239.744 823.993 240.559 824.019 241.4C825.758 238.769 832.212 240.262 830.64 246.035C831.183 245.117 832.055 244.44 833.079 244.142C834.103 243.844 835.203 243.947 836.153 244.43C837.104 244.913 837.836 245.741 838.198 246.744C838.561 247.747 838.529 248.85 838.107 249.83C838.107 249.83 844.108 246.736 843.94 255.981C843.772 265.226 821.713 290.295 821.713 290.295Z" fill="#B25E47"/>
<path d="M799.988 266.464C799.482 262.654 799.435 258.798 799.848 254.977C800.857 249.977 806.248 248.32 810.033 248.852C810.033 248.852 812.892 240.641 816.685 238.106C817.321 237.557 818.1 237.199 818.932 237.075C819.763 236.95 820.612 237.064 821.382 237.402C822.151 237.741 822.809 238.29 823.279 238.987C823.749 239.684 824.012 240.5 824.037 241.34C825.776 238.709 832.23 240.203 830.658 245.975C831.201 245.057 832.073 244.38 833.098 244.082C834.122 243.784 835.221 243.887 836.172 244.37C837.123 244.854 837.854 245.681 838.217 246.684C838.58 247.687 838.547 248.791 838.125 249.771C838.125 249.771 844.127 246.676 843.959 255.922" stroke="#934735" stroke-width="0.75" stroke-linecap="round" stroke-linejoin="round"/>
<path d="M809.974 248.901C816.647 249.671 821.867 251.909 821.397 254.113C820.927 256.317 812.472 257.089 812.472 257.089C812.472 257.089 821.703 261.287 814.972 271.79" stroke="#934735" stroke-width="0.75" stroke-linecap="round" stroke-linejoin="round"/>
<path d="M824 240.956C824 240.956 819.904 249.56 818.726 251.133" stroke="#934735" stroke-width="0.75" stroke-linecap="round" stroke-linejoin="round"/>
<path d="M821.747 254.262C823.976 255.66 827.054 253.895 831.031 245.321" stroke="#934735" stroke-width="0.75" stroke-linecap="round" stroke-linejoin="round"/>
<path d="M825.086 254.022C824.973 255.179 825.284 256.338 825.963 257.282C826.642 258.225 827.641 258.89 828.773 259.151" stroke="#934735" stroke-width="0.75" stroke-linecap="round" stroke-linejoin="round"/>
<path d="M838.187 249.855C835.71 250.793 827.637 258.632 829.703 261.8C832.122 265.47 836.743 259.547 836.743 259.547" stroke="#934735" stroke-width="0.75" stroke-linecap="round" stroke-linejoin="round"/>
<path d="M749.482 219.799C743.141 215.687 741.359 221.067 743.963 224.267C746.568 227.468 742.816 233.852 734.376 232.327C733.603 232.203 731.589 231.9 729.187 231.436C724.695 230.558 718.902 229.199 717.5 227.744C716.099 226.29 716.795 223.628 718.237 221.039C718.507 220.507 718.858 220 719.201 219.446C721.025 216.801 723.088 214.328 725.362 212.059C729.256 213.146 733.369 213.18 737.281 212.159C746.234 209.454 749.444 199.573 749.569 188.298C749.598 185.479 749.455 182.661 749.142 179.859C748.926 177.602 748.61 175.314 748.192 173.148C744.47 152.706 731.591 148.829 731.591 148.829C734.34 160.316 726.911 165.302 723.066 165.98C719.221 166.658 715.24 166.702 713.39 173.465C711.54 180.227 708.223 180.32 706.318 179.37C700.344 176.29 694.392 179.728 695.591 185.835C696.79 191.942 705.121 192.667 708.205 190.882C708.205 190.882 711.902 195.399 711.038 199.194C710.174 202.988 701.654 205.276 703.297 212.088C703.634 213.3 703.63 214.582 703.286 215.792C702.942 217.001 702.27 218.093 701.346 218.946C700.421 219.799 699.279 220.381 698.046 220.627C696.812 220.874 695.534 220.775 694.353 220.342C691.52 219.101 688.402 218.658 685.336 219.059C684.59 219.18 683.858 219.369 683.147 219.625C682.643 219.807 682.152 220.025 681.679 220.276C677.689 222.445 674.271 225.554 667.505 221.686C660.74 217.818 662.519 207.307 662.519 207.307C652.076 204.649 644.81 203.809 646.689 195.213C648.165 188.381 656.36 188.253 660.535 188.728C661.342 188.859 662.17 188.75 662.917 188.417C663.664 188.083 664.297 187.538 664.738 186.85C665.18 186.161 665.41 185.359 665.401 184.541C665.393 183.723 665.145 182.926 664.69 182.247C661.741 178.153 665.988 174.483 672.175 174.252C678.362 174.02 680.043 160.936 682.381 155.023C686.447 144.414 699.347 138.015 713.018 141.452C713.018 141.452 724.553 128.479 740.639 136.177C756.725 143.875 759.44 162.5 756.383 169.774C753.325 177.048 750.805 185.011 758.823 187.855C766.842 190.699 769.907 197.086 765.461 201.199C761.015 205.312 757.789 208.436 762.708 214.42C767.628 220.403 755.841 223.851 749.482 219.799Z" fill="#604730"/>
<path d="M731.601 148.723C734.35 160.21 726.921 165.196 723.076 165.874C719.231 166.552 715.25 166.596 713.4 173.359C711.55 180.121 708.233 180.214 706.328 179.264C700.354 176.184 694.402 179.622 695.601 185.729C696.8 191.836 705.131 192.561 708.215 190.776C708.215 190.776 711.912 195.293 711.048 199.088C710.184 202.882 701.664 205.17 703.308 211.982C703.644 213.194 703.64 214.475 703.296 215.685C702.952 216.895 702.28 217.987 701.356 218.84C700.431 219.693 699.289 220.275 698.056 220.521C696.822 220.768 695.544 220.669 694.363 220.236C691.53 218.995 688.412 218.552 685.346 218.953C684.6 219.074 683.868 219.263 683.158 219.519C674.072 211.726 668.3 202.041 674.252 197.661C682.033 191.948 684.641 197.166 685.036 184.416C685.432 171.667 690.791 165.045 698.748 166.643C706.705 168.241 715.615 165.172 714.112 156.232C712.609 147.292 729.953 134.324 743.502 146.055C750.624 152.224 750.712 162.796 748.367 173.004C744.481 152.6 731.601 148.723 731.601 148.723Z" fill="#473526"/>
<path d="M737.299 212.098C734.728 217.766 729.328 222.423 718.249 220.999C718.52 220.467 718.871 219.959 719.214 219.405C721.037 216.76 723.1 214.287 725.374 212.018C729.272 213.1 733.387 213.127 737.299 212.098Z" fill="#473526"/>
<path d="M719.214 219.406C717.162 222.49 715.833 225.793 717.525 227.664C718.846 229.095 724.719 230.478 729.211 231.356C708.914 239.813 696.018 233.672 685.261 219.015C688.328 218.613 691.446 219.057 694.279 220.298C695.46 220.731 696.738 220.829 697.971 220.583C699.205 220.337 700.347 219.755 701.271 218.902C702.196 218.049 702.867 216.957 703.212 215.747C703.556 214.537 703.56 213.256 703.223 212.044C701.58 205.232 710.094 202.964 710.964 199.149C711.833 195.335 708.13 190.837 708.13 190.837C705.047 192.622 696.655 191.88 695.517 185.791C694.378 179.702 700.324 176.284 706.244 179.326C708.149 180.275 711.485 180.189 713.315 173.42C715.145 166.652 719.111 166.734 722.992 165.936C726.873 165.137 734.29 160.192 731.516 148.785C731.516 148.785 744.41 152.688 748.125 173.15C748.532 175.356 748.86 177.604 749.075 179.861C749.389 182.663 749.531 185.481 749.502 188.3C749.263 203.575 743.477 216.315 725.296 212.061C723.021 214.33 720.959 216.803 719.135 219.448L719.214 219.406Z" fill="#B25E47"/>
<path d="M749.586 188.239C748.739 188.287 747.897 188.088 747.16 187.667C746.424 187.245 745.826 186.62 745.438 185.865C744.629 183.757 746.268 181.096 749.165 179.78C749.473 182.589 749.614 185.414 749.586 188.239Z" fill="#A0503D"/>
<path d="M731.182 176.614C731.099 176.887 731.073 177.173 731.104 177.456C731.135 177.739 731.224 178.012 731.364 178.26C731.504 178.507 731.694 178.724 731.92 178.896C732.147 179.068 732.406 179.192 732.683 179.261C733.081 179.36 733.5 179.34 733.887 179.204C734.274 179.068 734.612 178.821 734.861 178.494C735.109 178.167 735.256 177.774 735.283 177.365C735.311 176.955 735.217 176.547 735.015 176.19C734.812 175.833 734.51 175.543 734.144 175.356C733.779 175.169 733.366 175.094 732.958 175.139C732.551 175.184 732.165 175.348 731.849 175.61C731.533 175.873 731.301 176.222 731.182 176.614Z" fill="#683F1D"/>
<path d="M741.477 174.975C741.316 175.507 741.373 176.082 741.636 176.573C741.898 177.064 742.345 177.43 742.878 177.591C743.15 177.674 743.436 177.701 743.719 177.669C744.002 177.638 744.276 177.549 744.523 177.409C744.771 177.269 744.987 177.079 745.16 176.853C745.332 176.626 745.456 176.367 745.525 176.09C745.686 175.558 745.629 174.983 745.366 174.492C745.104 174.002 744.657 173.635 744.124 173.474C743.852 173.391 743.566 173.365 743.283 173.396C743 173.427 742.726 173.516 742.479 173.656C742.231 173.797 742.015 173.986 741.842 174.213C741.67 174.439 741.546 174.699 741.477 174.975Z" fill="#683F1D"/>
<path d="M725.38 211.997C723.106 214.266 721.043 216.739 719.219 219.384C717.295 218.004 715.905 216.004 715.283 213.719C714.661 211.434 714.845 209.005 715.804 206.84C718.72 209.029 721.948 210.767 725.38 211.997Z" fill="#914839"/>
<path d="M699.921 184.713C702.389 181.557 706.827 183.625 708.204 186.321" stroke="#934735" stroke-width="0.75" stroke-linecap="round" stroke-linejoin="round"/>
<path d="M702.747 187.542C702.751 187.054 702.869 186.574 703.092 186.14C703.315 185.706 703.636 185.33 704.03 185.042C704.423 184.755 704.879 184.563 705.36 184.483C705.841 184.403 706.335 184.437 706.801 184.581" stroke="#934735" stroke-width="0.75" stroke-linecap="round" stroke-linejoin="round"/>
<path d="M708.15 190.843C709.106 190.195 709.91 189.346 710.504 188.355" stroke="#934735" stroke-width="0.75" stroke-linecap="round" stroke-linejoin="round"/>
<path d="M729.952 187.336C731.048 189.026 732.62 190.354 734.47 191.152C736.32 191.951 738.364 192.183 740.346 191.82" stroke="#934735" stroke-width="0.75" stroke-linecap="round" stroke-linejoin="round"/>
<path d="M744.184 186.318C746.007 183.625 746.049 181.314 742.785 179.712C741.245 178.834 740.066 177.438 739.459 175.773C738.851 174.108 738.853 172.281 739.465 170.617" stroke="#934735" stroke-width="0.75" stroke-linecap="round" stroke-linejoin="round"/>
<path d="M725.87 167.29C725.147 169.68 734.399 171.275 735.944 168.849C737.179 166.943 727.172 162.773 725.87 167.29Z" fill="#604730"/>
<path d="M746.651 161.654C744.792 159.973 739.211 167.689 741.701 169.167C742.924 169.91 750.996 165.623 746.651 161.654Z" fill="#604730"/>
<path d="M712.892 141.437C716.182 142.698 719.2 144.579 721.782 146.978" stroke="#896442" stroke-width="0.75" stroke-linecap="round" stroke-linejoin="round"/>
<path d="M713.855 158.675C706.439 159.126 697.161 160.878 694.494 168.818C691.827 176.759 693.06 185.069 680.875 187.08C668.69 189.092 674.683 205.508 674.683 205.508" stroke="#896442" stroke-width="0.75" stroke-linecap="round" stroke-linejoin="round"/>
<path d="M685.829 211.272C693.895 207.948 688.878 199.172 697.409 196.34" stroke="#896442" stroke-width="0.75" stroke-linecap="round" stroke-linejoin="round"/>
<path d="M722.601 154.987C713.051 147.426 698.889 149.015 694.771 152.767" stroke="#896442" stroke-width="0.75" stroke-linecap="round" stroke-linejoin="round"/>
<path d="M729.026 183.592C727.903 185.708 724.541 186.093 721.569 184.47C718.596 182.846 717.072 179.842 718.189 177.746C719.306 175.651 722.673 175.245 725.666 176.875C728.658 178.504 730.15 181.543 729.026 183.592Z" fill="#A0503D"/>
<path d="M229.398 481.506C203.404 572.077 203.447 592.502 175.542 618.124C147.637 643.747 43.212 688.716 43.212 688.716L16.0845 651.804C16.0845 651.804 72.4269 617.777 99.6805 598.798C126.934 579.818 132.917 570.558 137.04 555.055C141.163 539.553 161.933 418.439 161.933 418.439L229.398 481.506Z" fill="#9C9C9C"/>
<path d="M372.939 526.538C372.939 526.538 258.424 502.942 223.672 493.825C188.919 484.707 156.607 470.716 157.64 412.118L254.542 408.15L263.093 420.385C312.959 436.359 358.741 449.166 389.902 458.775C391.529 459.267 393.095 459.742 394.591 460.304C437.843 481.685 405.484 526.437 372.939 526.538Z" fill="#9C9C9C"/>
<path d="M335.773 369.62L303.887 383.623L268.887 422.467C268.887 422.467 237.234 411.657 214.068 419.596C190.902 427.536 161.52 425.086 150.91 421.677C156.799 399.454 164.991 377.907 175.351 357.383C192.119 324.662 223.522 276.551 223.522 276.551C223.84 274.85 224.258 273.179 224.684 271.554C232.162 243.737 253.306 226.328 276.613 234.941C301.27 244.093 324.142 261.169 324.142 261.169C324.142 261.169 350.606 273.982 362.773 286.588C368.296 292.316 370.919 300.017 368.642 311.232C365.923 324.704 356.076 343.253 335.773 369.62Z" fill="#FF9B35"/>
<path d="M271.918 378.855L267.009 364.653C274.189 363.823 280.225 362.932 282.617 362.56C283.713 348.947 284.541 336.942 284.918 326.643C289.222 328.866 294.352 335.023 291.261 351.605C288.884 364.238 312.648 350.121 314.374 368.03C316.1 385.938 271.918 378.855 271.918 378.855Z" fill="#FF8100"/>
<path d="M347.59 321.893C343.015 324.476 332.084 342.697 317.857 363.91" stroke="#83ADDF" stroke-width="0.75" stroke-linecap="round" stroke-linejoin="round"/>
<path d="M440.26 369.704C437.831 376.642 425.894 371.099 425.894 371.099C427.377 377.643 417.078 378.493 412.46 377.38C409.388 376.541 406.507 375.117 403.973 373.189C403.973 373.189 347.306 399.378 326.093 409.268C304.88 419.158 266.922 433.011 246.878 423.83C226.835 414.649 227.463 391.643 225.46 364.728C230.53 365.83 235.697 366.425 240.884 366.503C254.275 366.808 277.361 363.405 282.603 362.602C282.359 365.509 282.124 368.53 281.851 371.604C325.683 361.809 375.533 347.346 380.043 345.05C384.553 342.754 402.857 335.667 408.67 332.253C414.483 328.838 421.426 335.742 417.296 337.363C413.165 338.985 410.768 341.11 421.679 353.446C435.42 368.962 443.155 361.372 440.26 369.704Z" fill="#FEBD9D"/>
<path d="M368.63 311.273C363.006 304.791 355.038 300.405 344.286 304.78C318.803 315.087 299.358 308.345 281.296 267.996C263.723 228.781 226.804 269.258 224.692 271.6C232.17 243.784 253.314 226.375 276.621 234.987C301.278 244.14 324.15 261.215 324.15 261.215C324.15 261.215 350.614 274.028 362.781 286.635C368.296 292.316 370.919 300.017 368.63 311.273Z" fill="#FF9B35"/>
<path d="M308.237 291.981C307.983 292.819 307.983 293.714 308.238 294.551C308.493 295.389 308.99 296.133 309.667 296.688C310.345 297.243 311.171 297.585 312.043 297.67C312.914 297.756 313.792 297.581 314.564 297.167C315.336 296.754 315.968 296.121 316.38 295.349C316.793 294.576 316.967 293.699 316.88 292.827C316.794 291.956 316.451 291.13 315.895 290.453C315.339 289.776 314.595 289.28 313.757 289.026C312.633 288.686 311.42 288.806 310.385 289.36C309.35 289.914 308.577 290.857 308.237 291.981Z" fill="white"/>
<path d="M223.263 276.032C223.263 276.032 217.525 349.299 219.026 362.448C221.086 363.395 223.248 364.102 225.471 364.552C230.54 365.655 235.707 366.249 240.894 366.327C249.627 366.274 258.348 365.671 267.005 364.52C274.185 363.689 280.221 362.798 282.613 362.426C283.709 348.814 284.537 336.809 284.914 326.509C285.779 302.939 284.214 288.412 277.732 284.257" stroke="#83ADDF" stroke-width="0.75" stroke-linecap="round" stroke-linejoin="round"/>
<path d="M281.864 371.562C268.881 375.196 265.439 380.337 265.439 380.337" stroke="#EF8A66" stroke-width="0.75" stroke-linecap="round" stroke-linejoin="round"/>
<path d="M425.875 371.092C418.054 367.957 414.495 366.244 414.495 366.244" stroke="#EF8A66" stroke-width="0.75" stroke-linecap="round" stroke-linejoin="round"/>
<path d="M404.02 373.18C406.556 375.121 409.443 376.553 412.522 377.398C417.18 378.523 427.432 377.681 425.935 371.111C425.935 371.111 437.899 376.64 440.322 369.722C443.217 361.39 435.462 368.974 421.753 353.423C410.842 341.087 413.227 339.003 417.363 337.361C421.5 335.719 414.577 328.822 408.744 332.23C405.759 333.979 399.515 336.715 393.471 339.226" stroke="#EF8A66" stroke-width="0.75" stroke-linecap="round" stroke-linejoin="round"/>
<path d="M391.433 332.559C398.348 327.242 403.569 334.041 401.989 339.767C400.408 345.493 386.81 349.422 384.488 345.431C382.167 341.44 387.552 335.528 391.433 332.559Z" fill="#B25E47"/>
<path d="M392.093 376.366C387.71 372.232 382.875 375.022 385.75 381.023C388.626 387.023 397.143 387.278 400.046 383.048L392.093 376.366Z" fill="#B25E47"/>
<path d="M392.093 376.366C387.71 372.232 382.875 375.022 385.75 381.023C388.626 387.023 397.143 387.278 400.046 383.048L392.093 376.366Z" stroke="#934735" stroke-width="0.75" stroke-linecap="round" stroke-linejoin="round"/>
<path d="M400.19 373.446C395.092 370.807 390.032 371.226 390.438 376.041C390.844 380.856 401.73 389.435 409.758 381.89L400.19 373.446Z" fill="#B25E47"/>
<path d="M400.19 373.446C395.092 370.807 390.032 371.226 390.438 376.041C390.844 380.856 401.73 389.435 409.758 381.89L400.19 373.446Z" stroke="#934735" stroke-width="0.75" stroke-linecap="round" stroke-linejoin="round"/>
<path d="M391.433 332.559C398.348 327.242 403.569 334.041 401.989 339.767C400.408 345.493 386.81 349.422 384.488 345.431C382.167 341.44 387.552 335.528 391.433 332.559Z" stroke="#934735" stroke-width="0.75" stroke-linecap="round" stroke-linejoin="round"/>
<path d="M399.341 375.379C396.821 370.669 400.53 366.092 405.054 368.821C409.577 371.55 409.7 374.766 417.983 377.822C423.513 379.759 406.099 388.036 399.341 375.379Z" fill="#B25E47"/>
<path d="M399.341 375.379C396.821 370.669 400.53 366.092 405.054 368.821C409.577 371.55 409.7 374.766 417.983 377.822C423.513 379.759 406.099 388.036 399.341 375.379Z" stroke="#934735" stroke-width="0.75" stroke-linecap="round" stroke-linejoin="round"/>
<path d="M353.175 224.795L345.43 225.322L333.599 226.016C331.188 221.484 329.291 216.696 327.945 211.741C325.837 203.715 325.925 195.892 333.412 195.857C325.479 193.455 326.586 186.467 333.474 187.106C324.563 184.167 330.639 176.338 339.601 180.191C339.601 180.191 336.21 170.68 351.86 173.663C362.905 175.779 370.431 180.974 374.38 186.181L374.684 186.624C376.312 188.684 377.332 191.157 377.631 193.765C378.077 200.258 353.175 224.795 353.175 224.795Z" fill="#D39933"/>
<path d="M353.175 224.794L345.429 225.321L333.599 226.015C331.188 221.483 329.291 216.695 327.945 211.741C333.028 208.785 339.002 211.427 340.836 208.847C343.458 205.255 338.58 182.841 356.019 188.603C365.847 191.841 371.594 189.371 374.716 186.589C376.344 188.649 377.365 191.122 377.663 193.73C378.077 200.257 353.175 224.794 353.175 224.794Z" fill="#C4892A"/>
<path d="M339.692 180.109C339.692 180.109 353.804 185.061 358.023 187.128C363.75 189.936 363.883 192.541 363.883 192.541" stroke="#EDB65F" stroke-width="0.75" stroke-linecap="round" stroke-linejoin="round"/>
<path d="M349.917 196.886L344.49 194.607" stroke="#EDB65F" stroke-width="0.75" stroke-linecap="round" stroke-linejoin="round"/>
<path d="M333.536 186.904C337.61 188.51 341.105 190.292 341.105 190.292" stroke="#EDB65F" stroke-width="0.75" stroke-linecap="round" stroke-linejoin="round"/>
<path d="M333.443 195.756C335.681 196.404 337.869 197.213 339.989 198.177" stroke="#EDB65F" stroke-width="0.75" stroke-linecap="round" stroke-linejoin="round"/>
<path d="M349.329 211.353C342.654 209.07 333.932 206.451 333.556 204.868" stroke="#EDB65F" stroke-width="0.75" stroke-linecap="round" stroke-linejoin="round"/>
<path d="M352.559 253.484C350.036 257.039 347.699 260.722 345.557 264.518C345.181 265.179 344.802 265.854 344.418 266.542C338.617 274.695 331.616 284.349 319.673 279.045C312.092 275.698 304.631 267.608 304.077 253.145C303.868 247.535 310.239 244.158 311.142 243.423C318.078 237.893 324.771 232.004 327.939 227.044C327.939 227.044 325.612 221.187 329.699 217.031C330.307 216.427 330.983 215.896 331.713 215.448C337.216 212.116 344.23 216.541 345.71 220.848C346.473 220.59 347.203 220.245 347.886 219.818C348.485 219.553 349.024 219.171 349.473 218.694C349.921 218.217 350.269 217.654 350.496 217.04C350.723 216.425 350.824 215.772 350.793 215.118C350.763 214.464 350.601 213.822 350.318 213.232C350.012 212.554 349.702 211.912 349.388 211.306L349.262 211.07C347.104 206.756 345.222 203.27 347.98 199.084C348.52 198.233 349.194 197.475 349.975 196.838C352.984 194.504 357.016 195.308 362.643 197.867C369.722 201.062 374.056 200.072 377.728 193.664C377.838 194.026 378.66 197.103 379.623 201.889C379.907 203.268 380.194 204.781 380.445 206.413C381.107 210.165 381.748 214.569 382.17 219.257C382.357 221.053 382.487 222.868 382.56 224.703C382.67 226.615 382.668 228.533 382.554 230.445C381.731 246.2 374.054 263.302 352.559 253.484Z" fill="#FEBD9D"/>
<path d="M359.455 222.158C357.761 224.495 353.466 224.27 349.809 221.65C349.082 221.133 348.417 220.535 347.827 219.866C348.426 219.601 348.966 219.219 349.414 218.742C349.863 218.264 350.211 217.702 350.438 217.088C350.665 216.473 350.766 215.82 350.735 215.166C350.705 214.511 350.543 213.87 350.26 213.28C349.92 212.519 349.568 211.799 349.204 211.118C351.614 210.945 354.003 211.668 355.912 213.149C359.577 215.815 361.149 219.821 359.455 222.158Z" fill="#F4AF90"/>
<path d="M360.85 213.13C360.73 213.528 360.73 213.952 360.851 214.349C360.971 214.746 361.207 215.098 361.528 215.361C361.849 215.624 362.241 215.786 362.654 215.827C363.067 215.867 363.483 215.784 363.849 215.589C364.214 215.393 364.514 215.093 364.71 214.727C364.905 214.36 364.987 213.945 364.947 213.532C364.906 213.119 364.743 212.727 364.48 212.406C364.216 212.086 363.864 211.85 363.466 211.73C362.934 211.569 362.359 211.626 361.868 211.888C361.377 212.151 361.011 212.598 360.85 213.13Z" fill="#683F1D"/>
<path d="M376.149 215.678C377.28 216.021 378.475 215.381 378.818 214.25C379.16 213.118 378.521 211.924 377.389 211.581C376.258 211.239 375.063 211.878 374.721 213.009C374.378 214.141 375.018 215.336 376.149 215.678Z" fill="#683F1D"/>
<path d="M352.558 253.484C350.035 257.039 347.698 260.722 345.556 264.519C329.777 255.949 341.675 241.924 341.675 241.924C341.675 241.924 348.032 250.689 352.558 253.484Z" fill="#F4A789"/>
<path d="M327.893 227.051C329.658 232.299 337.588 234.568 340.921 233.188" stroke="#EF8A66" stroke-width="0.75" stroke-linecap="round" stroke-linejoin="round"/>
<path d="M332.651 222.419C337.092 219.554 341.011 222.757 342.121 228.07" stroke="#EF8A66" stroke-width="0.75" stroke-linecap="round" stroke-linejoin="round"/>
<path d="M338.586 229.388C333.287 227.63 336.915 221.8 341.278 225.423" stroke="#EF8A66" stroke-width="0.75" stroke-linecap="round" stroke-linejoin="round"/>
<path d="M361.922 224.221C362.936 228.474 364.693 231.001 370.142 231.467" stroke="#EF8A66" stroke-width="0.75" stroke-linecap="round" stroke-linejoin="round"/>
<path d="M372.853 206.723C370.8 210.969 369.165 214.705 373.242 218.329C377.319 221.953 375.082 226.011 370.242 225.993" stroke="#EF8A66" stroke-width="0.75" stroke-linecap="round" stroke-linejoin="round"/>
<path d="M355.392 204.221C356.449 207.173 366.923 205.673 366.255 201.941C365.845 199.603 353.546 198.949 355.392 204.221Z" fill="#D39933"/>
<path d="M380.427 206.473C377.713 206.748 373.052 204.547 373.495 203.081C373.939 201.615 377.15 201.293 379.584 201.943C379.868 203.322 380.156 204.834 380.427 206.473Z" fill="#D39933"/>
<path d="M382.536 230.504C381.628 230.778 380.661 230.788 379.748 230.531C378.835 230.274 378.015 229.761 377.384 229.054C375.719 226.73 377.287 222.71 380.938 220.066C381.348 219.796 381.759 219.526 382.152 219.316C382.339 221.112 382.469 222.927 382.542 224.761C382.652 226.674 382.649 228.591 382.536 230.504Z" fill="#F4AF90"/>
<path d="M311.095 243.43C306.388 240.8 299.137 241.214 297.44 244.142C295.742 247.07 286.946 273.084 292.786 274.94C298.626 276.796 312.024 267.807 314.274 278.77C317.068 292.354 323.714 277.572 329.458 287.927C331.485 291.589 333.231 298.278 338.123 294.936C343.016 291.593 350.409 276.731 350.083 273.825C349.757 270.92 347.98 266.94 344.331 266.537C341.873 266.254 333.32 281.182 320.647 278.069C318.034 277.431 306.196 253.962 306.277 249.93C306.357 245.899 311.095 243.43 311.095 243.43Z" fill="white"/>
<g clip-path="url(#clip2_1621_9257)">
<path d="M182.489 118.799V98.5597C182.489 96.4651 181.871 94.7602 180.635 93.445C179.399 92.1298 177.796 91.4722 175.828 91.4722C174.546 91.4722 173.401 91.7644 172.394 92.349C171.387 92.9335 170.586 93.7616 169.99 94.8333C169.441 95.9049 169.166 97.1471 169.166 98.5597L165.664 96.6599C165.664 93.8834 166.213 91.4722 167.312 89.4263C168.411 87.3317 169.922 85.6998 171.845 84.5308C173.813 83.3617 176.057 82.7772 178.575 82.7772C181.093 82.7772 183.313 83.3617 185.236 84.5308C187.205 85.6998 188.739 87.3073 189.837 89.3532C190.936 91.3991 191.486 93.7616 191.486 96.4407V118.799H182.489ZM160.17 118.799V65.9717H169.166V118.799H160.17ZM214.321 119.53C210.979 119.53 207.958 118.726 205.256 117.119C202.601 115.463 200.472 113.246 198.87 110.47C197.313 107.644 196.535 104.502 196.535 101.044C196.535 97.5855 197.313 94.4923 198.87 91.7644C200.426 88.9879 202.555 86.7959 205.256 85.1884C207.958 83.5322 210.956 82.7041 214.253 82.7041C217.641 82.7041 220.662 83.5322 223.318 85.1884C226.019 86.7959 228.148 88.9879 229.705 91.7644C231.261 94.4923 232.04 97.5855 232.04 101.044C232.04 104.502 231.261 107.644 229.705 110.47C228.148 113.246 226.019 115.463 223.318 117.119C220.662 118.726 217.664 119.53 214.321 119.53ZM214.253 110.616C215.947 110.616 217.435 110.226 218.717 109.447C220.044 108.619 221.052 107.498 221.738 106.086C222.471 104.624 222.837 102.968 222.837 101.117C222.837 99.266 222.471 97.6342 221.738 96.2215C221.006 94.8089 219.999 93.7129 218.717 92.9335C217.435 92.1054 215.947 91.6914 214.253 91.6914C212.605 91.6914 211.14 92.1054 209.858 92.9335C208.576 93.7129 207.568 94.8089 206.836 96.2215C206.103 97.6342 205.737 99.266 205.737 101.117C205.737 102.968 206.103 104.624 206.836 106.086C207.568 107.498 208.576 108.619 209.858 109.447C211.14 110.226 212.605 110.616 214.253 110.616ZM237.831 118.799V83.5078H246.828V118.799H237.831ZM259.464 118.799V97.9752C259.464 95.9293 258.846 94.3461 257.61 93.2258C256.419 92.0567 254.931 91.4722 253.146 91.4722C251.955 91.4722 250.879 91.7401 249.918 92.2759C248.957 92.763 248.201 93.4937 247.652 94.4679C247.102 95.4422 246.828 96.6112 246.828 97.9752L243.325 96.1485C243.325 93.4206 243.875 91.0581 244.973 89.0609C246.118 87.0638 247.652 85.5294 249.575 84.4577C251.498 83.3373 253.672 82.7772 256.099 82.7772C258.388 82.7772 260.471 83.3373 262.348 84.4577C264.225 85.5294 265.713 87.0638 266.812 89.0609C267.911 91.0094 268.46 93.3719 268.46 96.1485V118.799H259.464ZM281.096 118.799V97.9752C281.096 95.9293 280.478 94.3461 279.242 93.2258C278.052 92.0567 276.564 91.4722 274.778 91.4722C273.634 91.4722 272.558 91.7401 271.551 92.2759C270.589 92.763 269.834 93.4937 269.284 94.4679C268.735 95.4422 268.46 96.6112 268.46 97.9752L263.31 96.6599C263.493 93.8347 264.202 91.3991 265.438 89.3532C266.675 87.2586 268.3 85.6511 270.314 84.5308C272.329 83.3617 274.572 82.7772 277.045 82.7772C279.517 82.7772 281.737 83.3373 283.706 84.4577C285.675 85.5294 287.231 87.0881 288.376 89.134C289.52 91.1799 290.093 93.6155 290.093 96.4407V118.799H281.096ZM313.249 119.53C309.77 119.53 306.679 118.751 303.978 117.192C301.277 115.584 299.125 113.392 297.523 110.616C295.966 107.839 295.188 104.673 295.188 101.117C295.188 97.6098 295.943 94.4923 297.454 91.7644C299.011 88.9879 301.117 86.7959 303.772 85.1884C306.427 83.5322 309.38 82.7041 312.631 82.7041C315.836 82.7041 318.651 83.4835 321.078 85.0422C323.55 86.5523 325.473 88.6469 326.847 91.326C328.266 93.9565 328.976 96.9522 328.976 100.313C328.976 100.947 328.93 101.604 328.838 102.286C328.792 102.919 328.678 103.65 328.495 104.478L300.613 104.551V97.3906L324.306 97.3175L320.666 100.313C320.574 98.2187 320.208 96.4651 319.567 95.0525C318.972 93.6398 318.079 92.5682 316.889 91.8375C315.744 91.0581 314.325 90.6684 312.631 90.6684C310.845 90.6684 309.289 91.1068 307.961 91.9836C306.633 92.8117 305.603 94.0052 304.871 95.5639C304.184 97.074 303.841 98.8763 303.841 100.971C303.841 103.114 304.207 104.99 304.939 106.597C305.718 108.156 306.817 109.374 308.236 110.25C309.655 111.079 311.303 111.493 313.18 111.493C314.874 111.493 316.408 111.2 317.782 110.616C319.155 109.983 320.345 109.057 321.353 107.839L326.641 113.465C325.038 115.463 323.07 116.973 320.735 117.996C318.445 119.019 315.95 119.53 313.249 119.53ZM342.996 118.799L330.566 83.5078H339.631L347.734 109.154L344.987 109.228L353.297 83.5078H359.821L368.13 109.228L365.383 109.154L373.487 83.5078H382.552L370.19 118.799H363.666L355.288 94.3949H357.829L349.451 118.799H342.996ZM401.769 119.53C398.427 119.53 395.406 118.726 392.704 117.119C390.049 115.463 387.92 113.246 386.318 110.47C384.761 107.644 383.983 104.502 383.983 101.044C383.983 97.5855 384.761 94.4923 386.318 91.7644C387.874 88.9879 390.003 86.7959 392.704 85.1884C395.406 83.5322 398.404 82.7041 401.701 82.7041C405.089 82.7041 408.11 83.5322 410.766 85.1884C413.467 86.7959 415.596 88.9879 417.153 91.7644C418.709 94.4923 419.487 97.5855 419.487 101.044C419.487 104.502 418.709 107.644 417.153 110.47C415.596 113.246 413.467 115.463 410.766 117.119C408.11 118.726 405.112 119.53 401.769 119.53ZM401.701 110.616C403.395 110.616 404.883 110.226 406.165 109.447C407.492 108.619 408.5 107.498 409.186 106.086C409.919 104.624 410.285 102.968 410.285 101.117C410.285 99.266 409.919 97.6342 409.186 96.2215C408.454 94.8089 407.447 93.7129 406.165 92.9335C404.883 92.1054 403.395 91.6914 401.701 91.6914C400.053 91.6914 398.587 92.1054 397.306 92.9335C396.024 93.7129 395.016 94.8089 394.284 96.2215C393.551 97.6342 393.185 99.266 393.185 101.117C393.185 102.968 393.551 104.624 394.284 106.086C395.016 107.498 396.024 108.619 397.306 109.447C398.587 110.226 400.053 110.616 401.701 110.616ZM425.279 118.799V83.5078H434.275V118.799H425.279ZM434.275 99.2904L430.773 96.8061C431.185 92.4707 432.375 89.0609 434.344 86.5767C436.313 84.0437 439.151 82.7772 442.86 82.7772C444.462 82.7772 445.904 83.0694 447.186 83.654C448.468 84.1898 449.636 85.091 450.689 86.3575L445.057 93.2258C444.554 92.6412 443.936 92.2028 443.203 91.9106C442.516 91.6183 441.715 91.4722 440.8 91.4722C438.877 91.4722 437.297 92.1298 436.061 93.445C434.871 94.7115 434.275 96.6599 434.275 99.2904ZM475 118.799L462.157 100.606L474.931 83.5078H485.301L470.33 102.798L470.673 98.1213L485.987 118.799H475ZM453.848 118.799V65.9717H462.844V118.799H453.848ZM526.042 119.53C522.654 119.53 519.609 118.726 516.908 117.119C514.207 115.511 512.078 113.319 510.522 110.543C508.965 107.766 508.187 104.649 508.187 101.19C508.187 97.6829 508.965 94.541 510.522 91.7644C512.078 88.9879 514.207 86.7959 516.908 85.1884C519.655 83.5322 522.7 82.7041 526.042 82.7041C528.652 82.7041 531.055 83.2156 533.253 84.2385C535.45 85.2614 537.35 86.7228 538.953 88.6225L533.184 94.8333C532.314 93.8103 531.261 93.0309 530.025 92.4951C528.835 91.9593 527.507 91.6914 526.042 91.6914C524.394 91.6914 522.906 92.1054 521.578 92.9335C520.296 93.7129 519.266 94.8089 518.488 96.2215C517.755 97.5855 517.389 99.2173 517.389 101.117C517.389 102.968 517.755 104.624 518.488 106.086C519.266 107.498 520.296 108.619 521.578 109.447C522.906 110.226 524.394 110.616 526.042 110.616C527.553 110.616 528.903 110.348 530.094 109.812C531.33 109.228 532.383 108.399 533.253 107.328L539.09 113.538C537.396 115.487 535.45 116.973 533.253 117.996C531.055 119.019 528.652 119.53 526.042 119.53ZM559.036 119.53C555.694 119.53 552.673 118.726 549.971 117.119C547.316 115.463 545.187 113.246 543.585 110.47C542.028 107.644 541.25 104.502 541.25 101.044C541.25 97.5855 542.028 94.4923 543.585 91.7644C545.141 88.9879 547.27 86.7959 549.971 85.1884C552.673 83.5322 555.671 82.7041 558.968 82.7041C562.356 82.7041 565.377 83.5322 568.033 85.1884C570.734 86.7959 572.863 88.9879 574.42 91.7644C575.976 94.4923 576.754 97.5855 576.754 101.044C576.754 104.502 575.976 107.644 574.42 110.47C572.863 113.246 570.734 115.463 568.033 117.119C565.377 118.726 562.379 119.53 559.036 119.53ZM558.968 110.616C560.662 110.616 562.15 110.226 563.432 109.447C564.759 108.619 565.766 107.498 566.453 106.086C567.186 104.624 567.552 102.968 567.552 101.117C567.552 99.266 567.186 97.6342 566.453 96.2215C565.721 94.8089 564.713 93.7129 563.432 92.9335C562.15 92.1054 560.662 91.6914 558.968 91.6914C557.32 91.6914 555.854 92.1054 554.573 92.9335C553.291 93.7129 552.283 94.8089 551.551 96.2215C550.818 97.6342 550.452 99.266 550.452 101.117C550.452 102.968 550.818 104.624 551.551 106.086C552.283 107.498 553.291 108.619 554.573 109.447C555.854 110.226 557.32 110.616 558.968 110.616ZM582.546 118.799V83.5078H591.542V118.799H582.546ZM604.179 118.799V97.9752C604.179 95.9293 603.56 94.3461 602.324 93.2258C601.134 92.0567 599.646 91.4722 597.86 91.4722C596.67 91.4722 595.594 91.7401 594.633 92.2759C593.671 92.763 592.916 93.4937 592.366 94.4679C591.817 95.4422 591.542 96.6112 591.542 97.9752L588.04 96.1485C588.04 93.4206 588.589 91.0581 589.688 89.0609C590.833 87.0638 592.367 85.5294 594.289 84.4577C596.212 83.3373 598.387 82.7772 600.813 82.7772C603.103 82.7772 605.186 83.3373 607.063 84.4577C608.94 85.5294 610.428 87.0638 611.527 89.0609C612.626 91.0094 613.175 93.3719 613.175 96.1485V118.799H604.179ZM625.811 118.799V97.9752C625.811 95.9293 625.193 94.3461 623.957 93.2258C622.767 92.0567 621.279 91.4722 619.493 91.4722C618.348 91.4722 617.272 91.7401 616.265 92.2759C615.304 92.763 614.548 93.4937 613.999 94.4679C613.45 95.4422 613.175 96.6112 613.175 97.9752L608.024 96.6599C608.207 93.8347 608.917 91.3991 610.153 89.3532C611.389 87.2586 613.015 85.6511 615.029 84.5308C617.044 83.3617 619.287 82.7772 621.759 82.7772C624.232 82.7772 626.452 83.3373 628.421 84.4577C630.389 85.5294 631.946 87.0881 633.091 89.134C634.235 91.1799 634.807 93.6155 634.807 96.4407V118.799H625.811Z" fill="#1D1D1D"/>
<path d="M496.311 119.531C494.663 119.531 493.312 118.946 492.259 117.777C491.206 116.608 490.68 115.171 490.68 113.466C490.68 111.761 491.206 110.324 492.259 109.155C493.312 107.986 494.663 107.401 496.311 107.401C497.913 107.401 499.241 107.986 500.294 109.155C501.347 110.324 501.874 111.761 501.874 113.466C501.874 115.171 501.347 116.608 500.294 117.777C499.241 118.946 497.913 119.531 496.311 119.531Z" fill="#FF8100"/>
</g>
</g>
</g>
<defs>
<clipPath id="clip0_1621_9257">
<rect width="1440" height="440" fill="white"/>
</clipPath>
<clipPath id="clip1_1621_9257">
<rect width="1212.28" height="1202.96" fill="white" transform="translate(246.701 -375.308) rotate(16.8429)"/>
</clipPath>
<clipPath id="clip2_1621_9257">
<rect width="475" height="56.8301" fill="white" transform="translate(160.001 63.999)"/>
</clipPath>
</defs>
</svg>
