<svg width="425" height="50" viewBox="0 0 425 50" fill="none" xmlns="http://www.w3.org/2000/svg">
<path d="M20.1212 48.2139V30.4068C20.1212 28.5639 19.5682 27.0639 18.4622 25.9068C17.3562 24.7496 15.9224 24.1711 14.161 24.1711C13.014 24.1711 11.9899 24.4282 11.0887 24.9425C10.1875 25.4568 9.47064 26.1854 8.93811 27.1282C8.44655 28.0711 8.20076 29.1639 8.20076 30.4068L5.06703 28.7354C5.06703 26.2925 5.5586 24.1711 6.54173 22.3711C7.52486 20.5282 8.87667 19.0925 10.5971 18.0639C12.3586 17.0354 14.3658 16.5211 16.6188 16.5211C18.8718 16.5211 20.8586 17.0354 22.5791 18.0639C24.3405 19.0925 25.7128 20.5068 26.6959 22.3068C27.6791 24.1068 28.1706 26.1854 28.1706 28.5425V48.2139H20.1212ZM0.151367 48.2139V1.73535H8.20076V48.2139H0.151367ZM48.6027 48.8568C45.6124 48.8568 42.9088 48.1496 40.4919 46.7354C38.116 45.2782 36.2112 43.3282 34.7774 40.8854C33.3847 38.3996 32.6883 35.6354 32.6883 32.5925C32.6883 29.5496 33.3847 26.8282 34.7774 24.4282C36.1702 21.9854 38.075 20.0568 40.4919 18.6425C42.9088 17.1854 45.5919 16.4568 48.5413 16.4568C51.5726 16.4568 54.2762 17.1854 56.6521 18.6425C59.069 20.0568 60.9738 21.9854 62.3666 24.4282C63.7594 26.8282 64.4557 29.5496 64.4557 32.5925C64.4557 35.6354 63.7594 38.3996 62.3666 40.8854C60.9738 43.3282 59.069 45.2782 56.6521 46.7354C54.2762 48.1496 51.5931 48.8568 48.6027 48.8568ZM48.5413 41.0139C50.0569 41.0139 51.3883 40.6711 52.5353 39.9854C53.7232 39.2568 54.6244 38.2711 55.2389 37.0282C55.8943 35.7425 56.222 34.2854 56.222 32.6568C56.222 31.0282 55.8943 29.5925 55.2389 28.3496C54.5834 27.1068 53.6822 26.1425 52.5353 25.4568C51.3883 24.7282 50.0569 24.3639 48.5413 24.3639C47.0666 24.3639 45.7557 24.7282 44.6088 25.4568C43.4618 26.1425 42.5606 27.1068 41.9051 28.3496C41.2497 29.5925 40.922 31.0282 40.922 32.6568C40.922 34.2854 41.2497 35.7425 41.9051 37.0282C42.5606 38.2711 43.4618 39.2568 44.6088 39.9854C45.7557 40.6711 47.0666 41.0139 48.5413 41.0139ZM69.6378 48.2139V17.1639H77.6872V48.2139H69.6378ZM88.9933 48.2139V29.8925C88.9933 28.0925 88.4402 26.6996 87.3342 25.7139C86.2692 24.6854 84.9378 24.1711 83.3402 24.1711C82.2752 24.1711 81.3125 24.4068 80.4523 24.8782C79.592 25.3068 78.9161 25.9496 78.4246 26.8068C77.933 27.6639 77.6872 28.6925 77.6872 29.8925L74.5535 28.2854C74.5535 25.8854 75.0451 23.8068 76.0282 22.0496C77.0523 20.2925 78.4246 18.9425 80.1451 17.9996C81.8655 17.0139 83.8113 16.5211 85.9824 16.5211C88.0306 16.5211 89.8945 17.0139 91.574 17.9996C93.2535 18.9425 94.5848 20.2925 95.568 22.0496C96.5511 23.7639 97.0427 25.8425 97.0427 28.2854V48.2139H88.9933ZM108.349 48.2139V29.8925C108.349 28.0925 107.796 26.6996 106.69 25.7139C105.625 24.6854 104.293 24.1711 102.696 24.1711C101.672 24.1711 100.709 24.4068 99.8077 24.8782C98.9475 25.3068 98.2716 25.9496 97.78 26.8068C97.2884 27.6639 97.0427 28.6925 97.0427 29.8925L92.4342 28.7354C92.5981 26.2496 93.233 24.1068 94.339 22.3068C95.4451 20.4639 96.8993 19.0496 98.7017 18.0639C100.504 17.0354 102.511 16.5211 104.723 16.5211C106.935 16.5211 108.922 17.0139 110.684 17.9996C112.445 18.9425 113.838 20.3139 114.862 22.1139C115.886 23.9139 116.398 26.0568 116.398 28.5425V48.2139H108.349ZM137.117 48.8568C134.004 48.8568 131.239 48.1711 128.822 46.7996C126.405 45.3854 124.48 43.4568 123.046 41.0139C121.653 38.5711 120.957 35.7854 120.957 32.6568C120.957 29.5711 121.633 26.8282 122.984 24.4282C124.377 21.9854 126.261 20.0568 128.637 18.6425C131.013 17.1854 133.655 16.4568 136.564 16.4568C139.431 16.4568 141.951 17.1425 144.122 18.5139C146.334 19.8425 148.054 21.6854 149.283 24.0425C150.553 26.3568 151.188 28.9925 151.188 31.9496C151.188 32.5068 151.147 33.0854 151.065 33.6854C151.024 34.2425 150.922 34.8854 150.758 35.6139L125.811 35.6782V29.3782L147.01 29.3139L143.753 31.9496C143.671 30.1068 143.343 28.5639 142.77 27.3211C142.237 26.0782 141.439 25.1354 140.374 24.4925C139.349 23.8068 138.08 23.4639 136.564 23.4639C134.966 23.4639 133.574 23.8496 132.386 24.6211C131.198 25.3496 130.276 26.3996 129.621 27.7711C129.006 29.0996 128.699 30.6854 128.699 32.5282C128.699 34.4139 129.027 36.0639 129.682 37.4782C130.378 38.8496 131.361 39.9211 132.631 40.6925C133.901 41.4211 135.376 41.7854 137.055 41.7854C138.571 41.7854 139.943 41.5282 141.172 41.0139C142.401 40.4568 143.466 39.6425 144.368 38.5711L149.099 43.5211C147.665 45.2782 145.904 46.6068 143.814 47.5068C141.766 48.4068 139.534 48.8568 137.117 48.8568ZM163.732 48.2139L152.611 17.1639H160.722L167.972 39.7282L165.514 39.7925L172.949 17.1639H178.786L186.221 39.7925L183.763 39.7282L191.014 17.1639H199.125L188.065 48.2139H182.227L174.731 26.7425H177.004L169.508 48.2139H163.732ZM216.319 48.8568C213.329 48.8568 210.625 48.1496 208.208 46.7354C205.833 45.2782 203.928 43.3282 202.494 40.8854C201.101 38.3996 200.405 35.6354 200.405 32.5925C200.405 29.5496 201.101 26.8282 202.494 24.4282C203.887 21.9854 205.792 20.0568 208.208 18.6425C210.625 17.1854 213.308 16.4568 216.258 16.4568C219.289 16.4568 221.993 17.1854 224.369 18.6425C226.786 20.0568 228.69 21.9854 230.083 24.4282C231.476 26.8282 232.172 29.5496 232.172 32.5925C232.172 35.6354 231.476 38.3996 230.083 40.8854C228.69 43.3282 226.786 45.2782 224.369 46.7354C221.993 48.1496 219.31 48.8568 216.319 48.8568ZM216.258 41.0139C217.774 41.0139 219.105 40.6711 220.252 39.9854C221.44 39.2568 222.341 38.2711 222.955 37.0282C223.611 35.7425 223.939 34.2854 223.939 32.6568C223.939 31.0282 223.611 29.5925 222.955 28.3496C222.3 27.1068 221.399 26.1425 220.252 25.4568C219.105 24.7282 217.774 24.3639 216.258 24.3639C214.783 24.3639 213.472 24.7282 212.325 25.4568C211.178 26.1425 210.277 27.1068 209.622 28.3496C208.966 29.5925 208.639 31.0282 208.639 32.6568C208.639 34.2854 208.966 35.7425 209.622 37.0282C210.277 38.2711 211.178 39.2568 212.325 39.9854C213.472 40.6711 214.783 41.0139 216.258 41.0139ZM237.354 48.2139V17.1639H245.404V48.2139H237.354ZM245.404 31.0496L242.27 28.8639C242.639 25.0496 243.704 22.0496 245.465 19.8639C247.227 17.6354 249.766 16.5211 253.084 16.5211C254.518 16.5211 255.808 16.7782 256.955 17.2925C258.102 17.7639 259.147 18.5568 260.089 19.6711L255.051 25.7139C254.6 25.1996 254.047 24.8139 253.392 24.5568C252.777 24.2996 252.06 24.1711 251.241 24.1711C249.521 24.1711 248.107 24.7496 247.001 25.9068C245.936 27.0211 245.404 28.7354 245.404 31.0496ZM281.841 48.2139L270.351 32.2068L281.78 17.1639H291.058L277.663 34.1354L277.97 30.0211L291.672 48.2139H281.841ZM262.916 48.2139V1.73535H270.965V48.2139H262.916ZM327.511 48.8568C324.479 48.8568 321.755 48.1496 319.338 46.7354C316.921 45.3211 315.017 43.3925 313.624 40.9496C312.231 38.5068 311.535 35.7639 311.535 32.7211C311.535 29.6354 312.231 26.8711 313.624 24.4282C315.017 21.9854 316.921 20.0568 319.338 18.6425C321.796 17.1854 324.52 16.4568 327.511 16.4568C329.846 16.4568 331.996 16.9068 333.962 17.8068C335.929 18.7068 337.629 19.9925 339.062 21.6639L333.901 27.1282C333.123 26.2282 332.18 25.5425 331.074 25.0711C330.009 24.5996 328.821 24.3639 327.511 24.3639C326.036 24.3639 324.705 24.7282 323.517 25.4568C322.37 26.1425 321.448 27.1068 320.752 28.3496C320.096 29.5496 319.768 30.9854 319.768 32.6568C319.768 34.2854 320.096 35.7425 320.752 37.0282C321.448 38.2711 322.37 39.2568 323.517 39.9854C324.705 40.6711 326.036 41.0139 327.511 41.0139C328.862 41.0139 330.071 40.7782 331.136 40.3068C332.242 39.7925 333.184 39.0639 333.962 38.1211L339.185 43.5854C337.67 45.2996 335.929 46.6068 333.962 47.5068C331.996 48.4068 329.846 48.8568 327.511 48.8568ZM357.032 48.8568C354.041 48.8568 351.338 48.1496 348.921 46.7354C346.545 45.2782 344.64 43.3282 343.207 40.8854C341.814 38.3996 341.117 35.6354 341.117 32.5925C341.117 29.5496 341.814 26.8282 343.207 24.4282C344.599 21.9854 346.504 20.0568 348.921 18.6425C351.338 17.1854 354.021 16.4568 356.97 16.4568C360.002 16.4568 362.705 17.1854 365.081 18.6425C367.498 20.0568 369.403 21.9854 370.796 24.4282C372.188 26.8282 372.885 29.5496 372.885 32.5925C372.885 35.6354 372.188 38.3996 370.796 40.8854C369.403 43.3282 367.498 45.2782 365.081 46.7354C362.705 48.1496 360.022 48.8568 357.032 48.8568ZM356.97 41.0139C358.486 41.0139 359.817 40.6711 360.964 39.9854C362.152 39.2568 363.054 38.2711 363.668 37.0282C364.323 35.7425 364.651 34.2854 364.651 32.6568C364.651 31.0282 364.323 29.5925 363.668 28.3496C363.013 27.1068 362.111 26.1425 360.964 25.4568C359.817 24.7282 358.486 24.3639 356.97 24.3639C355.496 24.3639 354.185 24.7282 353.038 25.4568C351.891 26.1425 350.99 27.1068 350.334 28.3496C349.679 29.5925 349.351 31.0282 349.351 32.6568C349.351 34.2854 349.679 35.7425 350.334 37.0282C350.99 38.2711 351.891 39.2568 353.038 39.9854C354.185 40.6711 355.496 41.0139 356.97 41.0139ZM378.067 48.2139V17.1639H386.116V48.2139H378.067ZM397.422 48.2139V29.8925C397.422 28.0925 396.869 26.6996 395.763 25.7139C394.698 24.6854 393.367 24.1711 391.769 24.1711C390.704 24.1711 389.741 24.4068 388.881 24.8782C388.021 25.3068 387.345 25.9496 386.854 26.8068C386.362 27.6639 386.116 28.6925 386.116 29.8925L382.982 28.2854C382.982 25.8854 383.474 23.8068 384.457 22.0496C385.481 20.2925 386.854 18.9425 388.574 17.9996C390.295 17.0139 392.24 16.5211 394.411 16.5211C396.46 16.5211 398.323 17.0139 400.003 17.9996C401.682 18.9425 403.014 20.2925 403.997 22.0496C404.98 23.7639 405.472 25.8425 405.472 28.2854V48.2139H397.422ZM416.778 48.2139V29.8925C416.778 28.0925 416.225 26.6996 415.119 25.7139C414.054 24.6854 412.722 24.1711 411.125 24.1711C410.101 24.1711 409.138 24.4068 408.237 24.8782C407.376 25.3068 406.701 25.9496 406.209 26.8068C405.717 27.6639 405.472 28.6925 405.472 29.8925L400.863 28.7354C401.027 26.2496 401.662 24.1068 402.768 22.3068C403.874 20.4639 405.328 19.0496 407.131 18.0639C408.933 17.0354 410.94 16.5211 413.152 16.5211C415.364 16.5211 417.351 17.0139 419.113 17.9996C420.874 18.9425 422.267 20.3139 423.291 22.1139C424.315 23.9139 424.827 26.0568 424.827 28.5425V48.2139H416.778Z" fill="#1D1D1D"/>
<path d="M300.909 48.858C299.434 48.858 298.226 48.3437 297.283 47.3151C296.341 46.2865 295.87 45.0222 295.87 43.5222C295.87 42.0222 296.341 40.7579 297.283 39.7294C298.226 38.7008 299.434 38.1865 300.909 38.1865C302.342 38.1865 303.53 38.7008 304.473 39.7294C305.415 40.7579 305.886 42.0222 305.886 43.5222C305.886 45.0222 305.415 46.2865 304.473 47.3151C303.53 48.3437 302.342 48.858 300.909 48.858Z" fill="#FF8100"/>
</svg>
