<svg width="500" height="60" viewBox="0 0 500 60" fill="none" xmlns="http://www.w3.org/2000/svg">
<path d="M23.6717 56.9469V36.106C23.6717 33.9492 23.0211 32.1936 21.7199 30.8393C20.4187 29.485 18.7319 28.8079 16.6597 28.8079C15.3103 28.8079 14.1054 29.1089 13.0452 29.7108C11.985 30.3127 11.1416 31.1654 10.5151 32.2689C9.93677 33.3723 9.64761 34.6514 9.64761 36.106L5.96087 34.1498C5.96087 31.2908 6.53918 28.8079 7.69581 26.7012C8.85243 24.5444 10.4428 22.8641 12.4669 21.6603C14.5392 20.4565 16.9006 19.8546 19.5512 19.8546C22.2018 19.8546 24.5392 20.4565 26.5633 21.6603C28.6356 22.8641 30.25 24.5193 31.4066 26.626C32.5633 28.7327 33.1416 31.1654 33.1416 33.9241V56.9469H23.6717ZM0.177734 56.9469V2.5498H9.64761V56.9469H0.177734ZM57.1793 57.6993C53.6613 57.6993 50.4805 56.8717 47.6372 55.2165C44.842 53.5111 42.601 51.2289 40.9143 48.3698C39.2757 45.4606 38.4565 42.2254 38.4565 38.6641C38.4565 35.1028 39.2757 31.9177 40.9143 29.1089C42.5528 26.2498 44.7938 23.9927 47.6372 22.3374C50.4805 20.632 53.6372 19.7793 57.1071 19.7793C60.6733 19.7793 63.854 20.632 66.6492 22.3374C69.4926 23.9927 71.7336 26.2498 73.3721 29.1089C75.0107 31.9177 75.8299 35.1028 75.8299 38.6641C75.8299 42.2254 75.0107 45.4606 73.3721 48.3698C71.7336 51.2289 69.4926 53.5111 66.6492 55.2165C63.854 56.8717 60.6974 57.6993 57.1793 57.6993ZM57.1071 48.5203C58.8902 48.5203 60.4564 48.119 61.8058 47.3165C63.2034 46.4638 64.2637 45.3101 64.9866 43.8555C65.7577 42.3508 66.1432 40.6454 66.1432 38.7393C66.1432 36.8333 65.7577 35.153 64.9866 33.6984C64.2155 32.2438 63.1552 31.1152 61.8058 30.3127C60.4564 29.46 58.8902 29.0336 57.1071 29.0336C55.3721 29.0336 53.8299 29.46 52.4805 30.3127C51.1311 31.1152 50.0709 32.2438 49.2998 33.6984C48.5287 35.153 48.1432 36.8333 48.1432 38.7393C48.1432 40.6454 48.5287 42.3508 49.2998 43.8555C50.0709 45.3101 51.1311 46.4638 52.4805 47.3165C53.8299 48.119 55.3721 48.5203 57.1071 48.5203ZM81.9265 56.9469V20.607H91.3964V56.9469H81.9265ZM104.698 56.9469V35.5041C104.698 33.3974 104.047 31.7673 102.746 30.6136C101.493 29.4098 99.9265 28.8079 98.047 28.8079C96.794 28.8079 95.6615 29.0838 94.6494 29.6355C93.6374 30.1371 92.8422 30.8895 92.2639 31.8927C91.6856 32.8958 91.3964 34.0996 91.3964 35.5041L87.7097 33.6231C87.7097 30.8143 88.288 28.3816 89.4446 26.325C90.6494 24.2685 92.2639 22.6885 94.288 21.585C96.3121 20.4314 98.6012 19.8546 101.155 19.8546C103.565 19.8546 105.758 20.4314 107.734 21.585C109.71 22.6885 111.276 24.2685 112.433 26.325C113.589 28.3314 114.167 30.7641 114.167 33.6231V56.9469H104.698ZM127.469 56.9469V35.5041C127.469 33.3974 126.818 31.7673 125.517 30.6136C124.264 29.4098 122.698 28.8079 120.818 28.8079C119.613 28.8079 118.481 29.0838 117.42 29.6355C116.408 30.1371 115.613 30.8895 115.035 31.8927C114.457 32.8958 114.167 34.0996 114.167 35.5041L108.746 34.1498C108.939 31.2406 109.686 28.7327 110.987 26.626C112.288 24.4692 113.999 22.8139 116.119 21.6603C118.24 20.4565 120.601 19.8546 123.204 19.8546C125.806 19.8546 128.143 20.4314 130.216 21.585C132.288 22.6885 133.927 24.2936 135.131 26.4003C136.336 28.5069 136.939 31.0149 136.939 33.9241V56.9469H127.469ZM161.314 57.6993C157.651 57.6993 154.398 56.8968 151.555 55.2917C148.711 53.6365 146.446 51.3793 144.759 48.5203C143.121 45.6612 142.302 42.4009 142.302 38.7393C142.302 35.1279 143.097 31.9177 144.687 29.1089C146.326 26.2498 148.543 23.9927 151.338 22.3374C154.133 20.632 157.241 19.7793 160.663 19.7793C164.037 19.7793 167 20.5819 169.555 22.187C172.157 23.7419 174.181 25.8987 175.627 28.6574C177.121 31.366 177.868 34.4508 177.868 37.9117C177.868 38.5638 177.82 39.2409 177.723 39.9431C177.675 40.5952 177.555 41.3476 177.362 42.2003L148.012 42.2755V34.9022L172.952 34.827L169.121 37.9117C169.025 35.7549 168.639 33.9492 167.964 32.4946C167.338 31.04 166.398 29.9365 165.145 29.1841C163.94 28.3816 162.446 27.9803 160.663 27.9803C158.784 27.9803 157.145 28.4317 155.747 29.3346C154.35 30.1873 153.265 31.4162 152.494 33.0212C151.772 34.5762 151.41 36.432 151.41 38.5889C151.41 40.7958 151.796 42.727 152.567 44.3822C153.386 45.9873 154.543 47.2412 156.037 48.1441C157.531 48.9968 159.265 49.4231 161.241 49.4231C163.025 49.4231 164.639 49.1222 166.085 48.5203C167.531 47.8682 168.784 46.9152 169.844 45.6612L175.41 51.4546C173.723 53.5111 171.651 55.066 169.193 56.1193C166.784 57.1727 164.157 57.6993 161.314 57.6993ZM192.626 56.9469L179.542 20.607H189.084L197.614 47.0155L194.723 47.0908L203.469 20.607H210.336L219.083 47.0908L216.192 47.0155L224.722 20.607H234.264L221.252 56.9469H214.385L205.565 31.8174H208.24L199.421 56.9469H192.626ZM254.493 57.6993C250.975 57.6993 247.794 56.8717 244.951 55.2165C242.156 53.5111 239.915 51.2289 238.228 48.3698C236.589 45.4606 235.77 42.2254 235.77 38.6641C235.77 35.1028 236.589 31.9177 238.228 29.1089C239.866 26.2498 242.107 23.9927 244.951 22.3374C247.794 20.632 250.951 19.7793 254.421 19.7793C257.987 19.7793 261.168 20.632 263.963 22.3374C266.806 23.9927 269.047 26.2498 270.686 29.1089C272.324 31.9177 273.144 35.1028 273.144 38.6641C273.144 42.2254 272.324 45.4606 270.686 48.3698C269.047 51.2289 266.806 53.5111 263.963 55.2165C261.168 56.8717 258.011 57.6993 254.493 57.6993ZM254.421 48.5203C256.204 48.5203 257.77 48.119 259.12 47.3165C260.517 46.4638 261.577 45.3101 262.3 43.8555C263.071 42.3508 263.457 40.6454 263.457 38.7393C263.457 36.8333 263.071 35.153 262.3 33.6984C261.529 32.2438 260.469 31.1152 259.12 30.3127C257.77 29.46 256.204 29.0336 254.421 29.0336C252.686 29.0336 251.144 29.46 249.794 30.3127C248.445 31.1152 247.385 32.2438 246.613 33.6984C245.842 35.153 245.457 36.8333 245.457 38.7393C245.457 40.6454 245.842 42.3508 246.613 43.8555C247.385 45.3101 248.445 46.4638 249.794 47.3165C251.144 48.119 252.686 48.5203 254.421 48.5203ZM279.24 56.9469V20.607H288.71V56.9469H279.24ZM288.71 36.8584L285.023 34.3003C285.457 29.8362 286.71 26.325 288.782 23.7669C290.854 21.1587 293.842 19.8546 297.746 19.8546C299.433 19.8546 300.951 20.1555 302.3 20.7574C303.65 21.3092 304.879 22.2371 305.987 23.5412L300.059 30.6136C299.529 30.0117 298.879 29.5603 298.107 29.2593C297.385 28.9584 296.541 28.8079 295.577 28.8079C293.553 28.8079 291.891 29.485 290.589 30.8393C289.336 32.1435 288.71 34.1498 288.71 36.8584ZM331.577 56.9469L318.059 38.2127L331.505 20.607H342.421L326.662 40.4698L327.023 35.6546L343.144 56.9469H331.577ZM309.312 56.9469V2.5498H318.782V56.9469H309.312ZM385.306 57.6993C381.74 57.6993 378.535 56.8717 375.692 55.2165C372.848 53.5612 370.607 51.3041 368.969 48.445C367.33 45.586 366.511 42.3758 366.511 38.8146C366.511 35.2031 367.33 31.9679 368.969 29.1089C370.607 26.2498 372.848 23.9927 375.692 22.3374C378.583 20.632 381.788 19.7793 385.306 19.7793C388.053 19.7793 390.583 20.306 392.897 21.3593C395.21 22.4127 397.21 23.9174 398.897 25.8736L392.824 32.2689C391.909 31.2155 390.8 30.413 389.499 29.8612C388.246 29.3095 386.848 29.0336 385.306 29.0336C383.571 29.0336 382.005 29.46 380.607 30.3127C379.258 31.1152 378.174 32.2438 377.354 33.6984C376.583 35.1028 376.198 36.7831 376.198 38.7393C376.198 40.6454 376.583 42.3508 377.354 43.8555C378.174 45.3101 379.258 46.4638 380.607 47.3165C382.005 48.119 383.571 48.5203 385.306 48.5203C386.897 48.5203 388.318 48.2444 389.571 47.6927C390.873 47.0908 391.981 46.2381 392.897 45.1346L399.041 51.5298C397.258 53.5362 395.21 55.066 392.897 56.1193C390.583 57.1727 388.053 57.6993 385.306 57.6993ZM420.037 57.6993C416.519 57.6993 413.338 56.8717 410.495 55.2165C407.7 53.5111 405.459 51.2289 403.772 48.3698C402.134 45.4606 401.314 42.2254 401.314 38.6641C401.314 35.1028 402.134 31.9177 403.772 29.1089C405.411 26.2498 407.652 23.9927 410.495 22.3374C413.338 20.632 416.495 19.7793 419.965 19.7793C423.531 19.7793 426.712 20.632 429.507 22.3374C432.35 23.9927 434.591 26.2498 436.23 29.1089C437.869 31.9177 438.688 35.1028 438.688 38.6641C438.688 42.2254 437.869 45.4606 436.23 48.3698C434.591 51.2289 432.35 53.5111 429.507 55.2165C426.712 56.8717 423.555 57.6993 420.037 57.6993ZM419.965 48.5203C421.748 48.5203 423.314 48.119 424.664 47.3165C426.061 46.4638 427.121 45.3101 427.844 43.8555C428.615 42.3508 429.001 40.6454 429.001 38.7393C429.001 36.8333 428.615 35.153 427.844 33.6984C427.073 32.2438 426.013 31.1152 424.664 30.3127C423.314 29.46 421.748 29.0336 419.965 29.0336C418.23 29.0336 416.688 29.46 415.338 30.3127C413.989 31.1152 412.929 32.2438 412.158 33.6984C411.387 35.153 411.001 36.8333 411.001 38.7393C411.001 40.6454 411.387 42.3508 412.158 43.8555C412.929 45.3101 413.989 46.4638 415.338 47.3165C416.688 48.119 418.23 48.5203 419.965 48.5203ZM444.784 56.9469V20.607H454.254V56.9469H444.784ZM467.555 56.9469V35.5041C467.555 33.3974 466.905 31.7673 465.603 30.6136C464.35 29.4098 462.784 28.8079 460.905 28.8079C459.652 28.8079 458.519 29.0838 457.507 29.6355C456.495 30.1371 455.7 30.8895 455.121 31.8927C454.543 32.8958 454.254 34.0996 454.254 35.5041L450.567 33.6231C450.567 30.8143 451.146 28.3816 452.302 26.325C453.507 24.2685 455.122 22.6885 457.146 21.585C459.17 20.4314 461.459 19.8546 464.013 19.8546C466.423 19.8546 468.615 20.4314 470.591 21.585C472.567 22.6885 474.134 24.2685 475.29 26.325C476.447 28.3314 477.025 30.7641 477.025 33.6231V56.9469H467.555ZM490.326 56.9469V35.5041C490.326 33.3974 489.676 31.7673 488.375 30.6136C487.122 29.4098 485.555 28.8079 483.676 28.8079C482.471 28.8079 481.338 29.0838 480.278 29.6355C479.266 30.1371 478.471 30.8895 477.893 31.8927C477.314 32.8958 477.025 34.0996 477.025 35.5041L471.603 34.1498C471.796 31.2406 472.543 28.7327 473.844 26.626C475.146 24.4692 476.856 22.8139 478.977 21.6603C481.097 20.4565 483.459 19.8546 486.061 19.8546C488.664 19.8546 491.001 20.4314 493.073 21.585C495.146 22.6885 496.784 24.2936 497.989 26.4003C499.194 28.5069 499.796 31.0149 499.796 33.9241V56.9469H490.326Z" fill="white"/>
<path d="M354.011 57.6995C352.276 57.6995 350.854 57.0976 349.746 55.8938C348.637 54.69 348.083 53.2103 348.083 51.4547C348.083 49.6992 348.637 48.2195 349.746 47.0157C350.854 45.8119 352.276 45.21 354.011 45.21C355.697 45.21 357.095 45.8119 358.203 47.0157C359.312 48.2195 359.866 49.6992 359.866 51.4547C359.866 53.2103 359.312 54.69 358.203 55.8938C357.095 57.0976 355.697 57.6995 354.011 57.6995Z" fill="#FF8100"/>
</svg>
